<mxfile host="app.diagrams.net" modified="2022-10-13T21:43:57.820Z" agent="5.0 (Windows NT 10.0; Win64; x64) AppleWebKit/537.36 (KHTML, like Gecko) Chrome/106.0.0.0 Safari/537.36" etag="6eGasCvfFKgqAMJ_TG2y" version="20.4.0" type="github">
  <diagram id="2i4bGPnVI529aCsl2PKk" name="Page-1">
    <mxGraphModel dx="808" dy="1720" grid="1" gridSize="10" guides="1" tooltips="1" connect="1" arrows="1" fold="1" page="1" pageScale="1" pageWidth="827" pageHeight="1169" math="0" shadow="0">
      <root>
        <mxCell id="0" />
        <mxCell id="1" parent="0" />
        <mxCell id="pE5c4ry1s6cFORCVuCyy-18" value="&lt;div style=&quot;&quot;&gt;&lt;span style=&quot;background-color: initial;&quot;&gt;Productivos&lt;/span&gt;&lt;br&gt;&lt;/div&gt;" style="rounded=0;whiteSpace=wrap;html=1;fontSize=6;align=left;" vertex="1" parent="1">
          <mxGeometry x="330" y="112.59" width="266" height="320" as="geometry" />
        </mxCell>
        <mxCell id="pE5c4ry1s6cFORCVuCyy-39" value="GitLab Runner&amp;nbsp;&lt;br&gt;(Queretaro)" style="rounded=0;whiteSpace=wrap;html=1;labelBackgroundColor=none;fontSize=13;" vertex="1" parent="1">
          <mxGeometry x="414" y="129" width="120" height="60" as="geometry" />
        </mxCell>
        <mxCell id="pE5c4ry1s6cFORCVuCyy-19" value="&lt;div style=&quot;&quot;&gt;&lt;span style=&quot;background-color: initial;&quot;&gt;AVL&lt;/span&gt;&lt;br&gt;&lt;/div&gt;" style="rounded=0;whiteSpace=wrap;html=1;fontSize=6;align=left;" vertex="1" parent="1">
          <mxGeometry x="170" y="-100" width="371.86" height="190" as="geometry" />
        </mxCell>
        <mxCell id="pE5c4ry1s6cFORCVuCyy-30" value="GitLab Runner&lt;br&gt;(Queretaro)" style="rounded=0;whiteSpace=wrap;html=1;fontSize=13;fillColor=#ffe6cc;strokeColor=#d79b00;" vertex="1" parent="1">
          <mxGeometry x="360.01" y="-33.22" width="147.99" height="103.22" as="geometry" />
        </mxCell>
        <mxCell id="pE5c4ry1s6cFORCVuCyy-4" value="SonarQube (v 9) (Queretaro)" style="whiteSpace=wrap;html=1;aspect=fixed;fillColor=#f8cecc;strokeColor=#b85450;" vertex="1" parent="1">
          <mxGeometry x="680" y="99" width="120" height="120" as="geometry" />
        </mxCell>
        <mxCell id="EPyueugh2iobcvaEf9Se-22" value="Despliegue" style="whiteSpace=wrap;html=1;aspect=fixed;align=center;verticalAlign=top;fillColor=#d5e8d4;strokeColor=#82b366;" parent="1" vertex="1">
          <mxGeometry x="626.31" y="-116.25" width="166.25" height="166.25" as="geometry" />
        </mxCell>
        <mxCell id="EPyueugh2iobcvaEf9Se-1" value="GitLab&amp;nbsp;&lt;br&gt;Server" style="whiteSpace=wrap;html=1;aspect=fixed;fillColor=#f5f5f5;fontColor=#333333;strokeColor=#666666;" parent="1" vertex="1">
          <mxGeometry x="188.5" y="170" width="80" height="80" as="geometry" />
        </mxCell>
        <mxCell id="EPyueugh2iobcvaEf9Se-3" value="" style="shape=image;verticalLabelPosition=bottom;labelBackgroundColor=default;verticalAlign=top;aspect=fixed;imageAspect=0;image=data:image/png,iVBORw0KGgoAAAANSUhEUgAAAOEAAADhCAMAAAAJbSJIAAAA9lBMVEX////iQyn8bSb8oybhNBH0wLn8bCb8pSb8aibhQCniQCXhPB/kRin8ayLiPyP8aRzpTyj8ZhP8YgD8ngDhORrzXyf8oCb87ev76OXhNBDgLwD4ZifwWif9tZ3/8Or+08L8h1P99fTxrqb30879qYf7eib7hybulovnbVzvn5TzurPmYk/wp57kUz32y8bkTzbsjIDpeWr419P+x7H9v6f+2Mj8dTL7lyb/8+X8rULpdmb64d7lXkrqgnXriHv5nHz9lmr8fUD/49f9jl79rYz8iFX8dR38sln9yIn9z5n+4L7/9+3+3bb9wnj9v3L+3bf8qDP+69TguyEEAAAIqUlEQVR4nO2di1qbTBCGA4lRopGcrCamRqqtrbW19tza/vZsD/bg/d/MDyRLgN2FZWcGEp99L6DDB+/ODht8WqsZDAaDwWAwGAwGg8FgMBgMBoPBYDAYDAYDGG/leGW7hDo7fh2vhDocR6NhozE6o864fTZqNIajI+IyAu4PrYDBKe3t3T4dhHUa90nLCHgwDehHfEta5+1gVmf4gLQOhzeyGMOnhHXOG1GdEWEZAcfzygPKm3syiOo0jgnr8DzcjCpvPrwBdTjOh9acxg5dnUa8zjlZHZ6jQazy4ISszkmiTok7hveoFatMqE9MUstqPSpv338cl9TvclSa7owSdYaPierwvF9PVCbTNCGpZa2fEdXh2G4kClutU6JCicUQ3MoyxuCAO6mEVJpuj1J1GndI6vCcpm6tNaCpfGeQqtN6RFKH42n61lJ100QnncpCOSHOebKeLmxtUmi6w9dZ/4+gDodnpSUlWiDccvc1tcrYElf4wtYmxSvUW07Sksbv+4LCFH18O91nwltZwovwjuARktzbY3EhujGf8UB0ayk0FbpC+zY6hdsMp4ywW4DH7UkhZPNTxGNxYXxNxZL6t5J6/D7jN6mpptgtQCwp/fgtccdC76aecLmHD5F2SxTswkzTFdRCol13Voh2/H4ncQfdHtlq8NfDO9RCKZ5K3fEHKkxNtwWjIWNAOX4fyRPinjGkzkmSCZ8gFkohGroj1t8jVnovlZR2/F7JuLNWaxOvcOattIa4TS2OaNqPFcbTNEtSyvGbOzdJgqhplqQ+I6oTqZOMPhM+RLRK2beSbvyWDN3zhFiaZktKN34fSMeMGWia5kjq38sDpEoF67YspEqZnTS8lyTjd9aYMaOBo2muLMgDFEP2whYDadoQHFdy95Ji/ObPZ/lbi/L7l5f+uUIAxRn0eU4HDxlhdICDnE46rYT/g3DW0B2B8jNteZWS5K9CC6mb5ne0gAZCpQR5m/AMBE0PVJYDwfgtOxhKgdBNlSTFH78FvwMJabXApTaVJPV3fdzT7xOlZWghfAOm1EkDkL8eeKd4Y+E9TlFSXxfUEynlGwv/IVphu5+BOn4rzFEM4LdZ56rLAfcHYU/5EQavUCsQ/lO/l9YQ72BIYeiORWxAKBAQ89cg+Ul3peCdfu8UkLRUhljjt3IDLxus8Vvlfa0aWkh/KKA4dFcB0ume/IeuysE5kUp/a7lQDDFOpOQ/+y4AKON33kl3pWCcfvPfWi4UCN9jXow7G45TdRAhjrPRGV9AA3pu227ujjvWooV0rM54t2m329AtcdK1Q5pbnQV6ko7T2WpOL6w3ASb84NoRW4vxJP2ntzW/KPcDLKD3sm3H2B1XntHZGO/GL6n9Eqbpp56dpDneqDKjn6+ZuqLeJ1DC212bY6uyjM7GFn853dughPFlWHVGYT7wQvzYFv2jtl3+enSssfhS2h8hAb30MoxY65Qb0emsyS6lB2k1XKOJsVuiqs7GrvxCQK1mkpEwULWsgBJBZwkhe/4zQSst/TFmPkCf7jNAwufZCe1mCavR6aR3wHTC54CEou0wyRZ5QuEWkUgI2RDzExKbmmdoGQlJTc01FJwwbx1OGVNFzO6hUULIOlRLSGSqiqHghDm7RQSFqUqGhgkhu8WLzB0/DrqpaoYG9F4AEu4pJ0Q2VdXQMOEeIKHXVTTFxjVV2VCfdhsQsFbbl7w9CUEzVd3QIOE+KOGF8A1Yxi5SQnVDfVzYialqM52BYWoRQwNArbRW2ymWEMHUQoaGCYFff8mOMaRAR/FChtrQQwyfw6IPEXS+kXFWIaN7CEyYdY4hQ9vUwoYGCSH7fUhhTW19U3NfBXnaL6EBlV6gONY0Bhxno7ChNvg8OEB+oJhJ4cWoY6gNPEqcUbzXhBQ1VcNQG7zdT9HpNQFFRvEig3YC0NQdcaH3EAuY6nQ0K3QxHqH/CuVqtNMQVVP1DA1eK1AeoWY7DVExVdtQlEY646XuQ1QwVdtQlL2QodtsAvJM1TXUf5EB/vqb4DYgYpapAEP9PormaMDnQm/CSeQvjQBD/UX4GTNgzbP1l6Jvqjiio2+ov9cDv8Hg2OtCIopMBRlqt7tIG8WcT9q7YgBvatHDilRAF7HLMCY9SMT0SyPIUP8JQr/1EgJ7iglTYYb6AQmeYBjRBnTUuKmgHho0GaKAfrvZ157fQmamar4KMrpf0ZtMjEPYYgxMhRragx495TBxoaaCeqjtuiQ9Jg7U1Ls2JGF3n9JQBsDUNfvV6itb58QppN37UkK+WvBltKapa3dv1ev1W3c1I7o0u6AIPVOba/dW6wGr99Z0TC3HUIaGqYGh9Sk6ppZmKKOwqb6hLKAfsbCpJfTQNMVMjQyNMhYztVxDGYfqL1QxQ+sappLv8jKUd/+EocVNde3SDWXsfVQxlTM0Qs3UagxlKPRUgaFFTG13S+6haSZ5b1RCQ9VNrdBQRrapvqHSeCqmVmsoI8PUDEPnpjalEUvf5WVITc00NN/UBTCUId798w2dmyoK2CN9ly+KwNRmvqFZpi6MoQxu91cyVG6q2wZ/RYJN0lT5Lq9mKu1pky5f5qYWMHRu6nzbWDhDGZOeq2FoFPEWG3Bc0HfNpHihqeo9NE1oarP7tZL/G1cR31SFXV76GF/ZzTbuD5/4TNxvGobOI35zF9ZQxt6bvnbAer1/uYg9NM13/Yj9H1VfvBo/tRP+rPrSVXmtZWr/8lfVF14ADVP736u+6GJcFQ24ujSGMoqZ2r98XfUFa/BbPeKyGcq4Un4/XDpDGddKpi6noQwFU5fVUMZVbsSlNZSR3VP7b5bZUMYfecT+76ovDgepqf2/VV8aFtf/RBlvhqEMgak3xVDGj3TE/lXVl4TN9Wo8Y//fTTJ0xq+Yqf0/VV8NDZGpN89QxvVlP2Cp59A8Xv+9+nuT8xkMBoPBYDAYDAaDwWAwGAwGg8FgMBgMhoXmf3Do5t2Z0MEtAAAAAElFTkSuQmCC;" parent="1" vertex="1">
          <mxGeometry x="192.5" y="225" width="25" height="25" as="geometry" />
        </mxCell>
        <mxCell id="EPyueugh2iobcvaEf9Se-6" value="" style="endArrow=classic;html=1;rounded=0;exitX=1;exitY=0.5;exitDx=0;exitDy=0;" parent="1" source="EPyueugh2iobcvaEf9Se-1" edge="1">
          <mxGeometry width="50" height="50" relative="1" as="geometry">
            <mxPoint x="290" y="150" as="sourcePoint" />
            <mxPoint x="410" y="160" as="targetPoint" />
          </mxGeometry>
        </mxCell>
        <mxCell id="EPyueugh2iobcvaEf9Se-7" value="" style="endArrow=classic;html=1;rounded=0;exitX=1;exitY=0.5;exitDx=0;exitDy=0;entryX=0;entryY=0.5;entryDx=0;entryDy=0;" parent="1" source="EPyueugh2iobcvaEf9Se-1" edge="1">
          <mxGeometry width="50" height="50" relative="1" as="geometry">
            <mxPoint x="227.5" y="220" as="sourcePoint" />
            <mxPoint x="414" y="270.5" as="targetPoint" />
          </mxGeometry>
        </mxCell>
        <mxCell id="EPyueugh2iobcvaEf9Se-8" value="" style="shape=image;verticalLabelPosition=bottom;labelBackgroundColor=default;verticalAlign=top;aspect=fixed;imageAspect=0;image=data:image/png,iVBORw0KGgoAAAANSUhEUgAAAOEAAADhCAMAAAAJbSJIAAAA9lBMVEX////iQyn8bSb8oybhNBH0wLn8bCb8pSb8aibhQCniQCXhPB/kRin8ayLiPyP8aRzpTyj8ZhP8YgD8ngDhORrzXyf8oCb87ev76OXhNBDgLwD4ZifwWif9tZ3/8Or+08L8h1P99fTxrqb30879qYf7eib7hybulovnbVzvn5TzurPmYk/wp57kUz32y8bkTzbsjIDpeWr419P+x7H9v6f+2Mj8dTL7lyb/8+X8rULpdmb64d7lXkrqgnXriHv5nHz9lmr8fUD/49f9jl79rYz8iFX8dR38sln9yIn9z5n+4L7/9+3+3bb9wnj9v3L+3bf8qDP+69TguyEEAAAIqUlEQVR4nO2di1qbTBCGA4lRopGcrCamRqqtrbW19tza/vZsD/bg/d/MDyRLgN2FZWcGEp99L6DDB+/ODht8WqsZDAaDwWAwGAwGg8FgMBgMBoPBYDAYDAYDGG/leGW7hDo7fh2vhDocR6NhozE6o864fTZqNIajI+IyAu4PrYDBKe3t3T4dhHUa90nLCHgwDehHfEta5+1gVmf4gLQOhzeyGMOnhHXOG1GdEWEZAcfzygPKm3syiOo0jgnr8DzcjCpvPrwBdTjOh9acxg5dnUa8zjlZHZ6jQazy4ISszkmiTok7hveoFatMqE9MUstqPSpv338cl9TvclSa7owSdYaPierwvF9PVCbTNCGpZa2fEdXh2G4kClutU6JCicUQ3MoyxuCAO6mEVJpuj1J1GndI6vCcpm6tNaCpfGeQqtN6RFKH42n61lJ100QnncpCOSHOebKeLmxtUmi6w9dZ/4+gDodnpSUlWiDccvc1tcrYElf4wtYmxSvUW07Sksbv+4LCFH18O91nwltZwovwjuARktzbY3EhujGf8UB0ayk0FbpC+zY6hdsMp4ywW4DH7UkhZPNTxGNxYXxNxZL6t5J6/D7jN6mpptgtQCwp/fgtccdC76aecLmHD5F2SxTswkzTFdRCol13Voh2/H4ncQfdHtlq8NfDO9RCKZ5K3fEHKkxNtwWjIWNAOX4fyRPinjGkzkmSCZ8gFkohGroj1t8jVnovlZR2/F7JuLNWaxOvcOattIa4TS2OaNqPFcbTNEtSyvGbOzdJgqhplqQ+I6oTqZOMPhM+RLRK2beSbvyWDN3zhFiaZktKN34fSMeMGWia5kjq38sDpEoF67YspEqZnTS8lyTjd9aYMaOBo2muLMgDFEP2whYDadoQHFdy95Ji/ObPZ/lbi/L7l5f+uUIAxRn0eU4HDxlhdICDnE46rYT/g3DW0B2B8jNteZWS5K9CC6mb5ne0gAZCpQR5m/AMBE0PVJYDwfgtOxhKgdBNlSTFH78FvwMJabXApTaVJPV3fdzT7xOlZWghfAOm1EkDkL8eeKd4Y+E9TlFSXxfUEynlGwv/IVphu5+BOn4rzFEM4LdZ56rLAfcHYU/5EQavUCsQ/lO/l9YQ72BIYeiORWxAKBAQ89cg+Ul3peCdfu8UkLRUhljjt3IDLxus8Vvlfa0aWkh/KKA4dFcB0ume/IeuysE5kUp/a7lQDDFOpOQ/+y4AKON33kl3pWCcfvPfWi4UCN9jXow7G45TdRAhjrPRGV9AA3pu227ujjvWooV0rM54t2m329AtcdK1Q5pbnQV6ko7T2WpOL6w3ASb84NoRW4vxJP2ntzW/KPcDLKD3sm3H2B1XntHZGO/GL6n9Eqbpp56dpDneqDKjn6+ZuqLeJ1DC212bY6uyjM7GFn853dughPFlWHVGYT7wQvzYFv2jtl3+enSssfhS2h8hAb30MoxY65Qb0emsyS6lB2k1XKOJsVuiqs7GrvxCQK1mkpEwULWsgBJBZwkhe/4zQSst/TFmPkCf7jNAwufZCe1mCavR6aR3wHTC54CEou0wyRZ5QuEWkUgI2RDzExKbmmdoGQlJTc01FJwwbx1OGVNFzO6hUULIOlRLSGSqiqHghDm7RQSFqUqGhgkhu8WLzB0/DrqpaoYG9F4AEu4pJ0Q2VdXQMOEeIKHXVTTFxjVV2VCfdhsQsFbbl7w9CUEzVd3QIOE+KOGF8A1Yxi5SQnVDfVzYialqM52BYWoRQwNArbRW2ymWEMHUQoaGCYFff8mOMaRAR/FChtrQQwyfw6IPEXS+kXFWIaN7CEyYdY4hQ9vUwoYGCSH7fUhhTW19U3NfBXnaL6EBlV6gONY0Bhxno7ChNvg8OEB+oJhJ4cWoY6gNPEqcUbzXhBQ1VcNQG7zdT9HpNQFFRvEig3YC0NQdcaH3EAuY6nQ0K3QxHqH/CuVqtNMQVVP1DA1eK1AeoWY7DVExVdtQlEY646XuQ1QwVdtQlL2QodtsAvJM1TXUf5EB/vqb4DYgYpapAEP9PormaMDnQm/CSeQvjQBD/UX4GTNgzbP1l6Jvqjiio2+ov9cDv8Hg2OtCIopMBRlqt7tIG8WcT9q7YgBvatHDilRAF7HLMCY9SMT0SyPIUP8JQr/1EgJ7iglTYYb6AQmeYBjRBnTUuKmgHho0GaKAfrvZ157fQmamar4KMrpf0ZtMjEPYYgxMhRragx495TBxoaaCeqjtuiQ9Jg7U1Ls2JGF3n9JQBsDUNfvV6itb58QppN37UkK+WvBltKapa3dv1ev1W3c1I7o0u6AIPVOba/dW6wGr99Z0TC3HUIaGqYGh9Sk6ppZmKKOwqb6hLKAfsbCpJfTQNMVMjQyNMhYztVxDGYfqL1QxQ+sappLv8jKUd/+EocVNde3SDWXsfVQxlTM0Qs3UagxlKPRUgaFFTG13S+6haSZ5b1RCQ9VNrdBQRrapvqHSeCqmVmsoI8PUDEPnpjalEUvf5WVITc00NN/UBTCUId798w2dmyoK2CN9ly+KwNRmvqFZpi6MoQxu91cyVG6q2wZ/RYJN0lT5Lq9mKu1pky5f5qYWMHRu6nzbWDhDGZOeq2FoFPEWG3Bc0HfNpHihqeo9NE1oarP7tZL/G1cR31SFXV76GF/ZzTbuD5/4TNxvGobOI35zF9ZQxt6bvnbAer1/uYg9NM13/Yj9H1VfvBo/tRP+rPrSVXmtZWr/8lfVF14ADVP736u+6GJcFQ24ujSGMoqZ2r98XfUFa/BbPeKyGcq4Un4/XDpDGddKpi6noQwFU5fVUMZVbsSlNZSR3VP7b5bZUMYfecT+76ovDgepqf2/VV8aFtf/RBlvhqEMgak3xVDGj3TE/lXVl4TN9Wo8Y//fTTJ0xq+Yqf0/VV8NDZGpN89QxvVlP2Cp59A8Xv+9+nuT8xkMBoPBYDAYDAaDwWAwGAwGg8FgMBgMhoXmf3Do5t2Z0MEtAAAAAElFTkSuQmCC;" parent="1" vertex="1">
          <mxGeometry x="469" y="282.5" width="25" height="25" as="geometry" />
        </mxCell>
        <mxCell id="EPyueugh2iobcvaEf9Se-12" value="" style="shape=image;verticalLabelPosition=bottom;labelBackgroundColor=default;verticalAlign=top;aspect=fixed;imageAspect=0;image=data:image/png,iVBORw0KGgoAAAANSUhEUgAAANMAAADvCAYAAABov+EPAAAa+ElEQVR4nO3de1xUZf4H8A8GAsqYkiCMgyPeHdty85K30sRydTUTale3wMpLii/FkEpA7ZWImosUugkmloEt7UWKtPyV4aUCXUk3KyE0xXEOA8ugEoMCgvL7YzyIhgrDM+ec58z3/Wch54n8cJ7vme/3OS4NDQ0NIIqQve8AzOYShD43865fW1x9AdvP7EfUwGlwb+cqwerI3bSTewEEKCgoxFPBMzAh6DFcunSpxX9uuXEvemUvw8em/zhwdaSlKEwyslqrEB2zEgbDAHz9bR7grm3dN3C5BwAQ/FMaxn0Tj2MXzjhglaSlKEwySd+RgU6dfPHOlnTo9AZ07OBh9/fSunriVM1FDDm8HrO/S0FpTQXDlZKWojBJLDf3MAYPGYOw0IXQ6QNxr6YDs++tdfPC/138Bf77Y5F86gvUXqtn9r3J3VGYJGIyCXgqeAZGjx6PklILdHp/h11L6+qJ8F8+Ra/sZdhjPuaw65CbUZgczGqtQvya9ejRIwBff5sHnT4Q7d0c//RN6+oJAJj8/bsY9008TlrNDr+ms6MwOVD6jgx08umP5auS2lwX2Uvr5oVTNRfR/5tVWPLf7bBerZV8Dc6CwuQAN9VFfp2h8+ss95KgdfNCUmkeOn0ZieRTX8i9HFWiMDFkMgkIe34eRo8e6fC6yB5aV8/Geqr73ih8XZYv95JUhcLEiK0u6odPdu2FTm+QpC6yl1hPjf1uI6blbqB6ihEKUxtlZmbBxaP79bqI7aNuR9O6eeG7SyXo/80qRP/wIdVTbURhslNe3lEMHjIGISGzFFMX2Uvr5oV1xbno9GUk0osOyr0cblGYWqm8/Dxmzw3H8OFDr9dF3eVeEhNiPRX28z9x//4VVE/ZgcLUCilbUuHj0xX/ytyj+LrIXlpXT1ysr26sp4qrL8i9JG5QmFoge98BBPZ5EAvmx0CnN3BVF9lLrKd0+2MQf2IntSa1AIXpDm6MRkzG5eoa6PQ+ci9Jclo3Lyw/t49GPVqAwtSMW0cjpGoBUirxUXrwT2m4f/8KGvW4DQrTLWyjEb2wLnGbbC1ASiXWUzTq0TwK03U3j0b4cP2o29FuHfUgNk4fphujEcpsAVKypq1JNOrhxGH67WiEOh91O1rTUY8/fPumU7cmOWWYMjOzZB+NUButmxd+rLY49aiHU4XpRgvQ89y3AClV46jHFxFOV085RZhMJuGWFqBWngJEWkXr6gmtm5fT1VOqD5OtLrpf1S1AStVYTx3f5hT1lGrDtPuzPU1GI7o7RQuQUmldPZ2inlJdmAoKCjFu/CRMnRJCdZHCqH10XjVhKi8/j4glr8BgGID8gtPQ6QPlXhJpRtPRebWNeqgiTOJoxPvp/4ZOb4C7u5vcS2q1K3X1QK0ZHTt2bNHX3+PSDmi4CnN9tYNX5hhqHPXgOky7P9ujitEIwWiGv58PcnIOtegNGADg59EZlROTEOE3DOa6Kgev0HGajnpE//Ah16MeLjy+UqagoBCLIqKQvTcbvtoAbp/QCaUVQO0lpKUntzhEzTlpNWPe9+/jYJW58Qkaj8S7bNqAPyE0cKzMq2k9rsJktVbh9Tfi8daGdfDx68vldg4ALl2uwUVLCZZFRyEm+lVoNF5Mvu8e8zHMOfF3mOuruQ/VIA9vpD34Ah7y7iX3clqMmzClbEnFgvkx0Hh35HY7d6WuHmXmk5g2/c/YlJSAgACdQ66TfOoLhJ/6GFo3NiGVi7muCi/6Dkb8/TPg56H8p7KKD1Nu7mE8G/YSzp4u4XrSVTCWoGfvAHyYtgWjRo1w+PVKayoQ+9NHeK/se1WEarX+ccW/JVGxYTKZBCyKiELWx/+Ar7Yf33URgOSkNzD/pTmSX//YhTOIPJGhinpK6+qJvw14BtMDHpZ7Oc1SXJis1iqsWbse69bGoYtPL247umtr62ApPYVl0SuY1kX2+tj0HwT/lAYA3IdqoqYH1hieUVw9pagwpe/IQFhoBODuxm3ngq0uMiHo8SBsSkrAwIH95V5So9pr9UgoyMLyc/u4DhRg2/pF+I9A3AMzobnHXe7lAFBImHJzDyN8URSOH8vnetJVMFrQs7c/Ut9NQtD4cXIv57bUUk+Jj9I393kSC/pOlHk1MofJZBIQu2IV0j/YynVd9Kv1MqwXziI5ZassdZG9jl04g7Dj7+NEzQWu71RiPZXx4It41Ncg2zpkCZPVWoWNmzZjeexr0Hj35PZRt1gXLY6Iwuq412Wvi+yVXnQQy37Zxf/nU3VVmNgpEBsfDEU/jfQza5KHKTMzCyF/CQcAqosUpLGeMu7leusH2EK1TPcIYgY9LWk9JVmY8vKOYvGSV3E49yh8td243dIJRgu6+GiQ9v7fMOWPk+ReDnPF1RcQ/t/38WnFKa5DJUdrksPDVF5+Hq9Fr8B7qclctwCJddGGxI2IfHmR3MtxuK/L8hF+IkMV9ZRUrUkODVPiW5uwNPI1aLy7cVsXiS1AobPmIj5upcNagJQqveggwn7+JwDOP5+63pq0atCf0N3T2yHXcEiYdn+2BwsWRkEwWlTRAvTPjPcwbNgQuZcjG+vVWqw58W+sE77heusH2O5Uq3uMd0hrEtMwFRQUYsHCJTi4/yD/oxEA0lIT2jQaoTZqq6cy7w9j2prEJEzl5ecRt3odNiYlcF0X2UYjziimBUip1FRPjfXSInHQTCb1VJvDZBuNeBUa73u5r4scPRqhNuKoB1zu4TtU1+upt3//Qpsepdsdpux9BzDz2XmwlFZwXxc9+JABG/66WtEtQEqlqnqqrgqb+063uzWp1WEqKChEdOzryPr4U67rItuj7ktIS0+iuoiBk1YzFh9PxxeVRVyHSuwCSR30F0zSPtSqP9viMKllNEKsi15eugxvvB5LdRFjahqdn6jp0arWpBaFyTYaMVsFnxeZMG36k1gb/4YqWoCULPnUFwj/5VMA/H8+1dJRjzuGiUYjSFuobdTjbq1JzYbpxsi4Guqi/yE5ZSNXoxFqo7ZRj9vVUzcdQvnbt+nx+Zbx2to6CMZ8vBD6NCoryyhIMnvIuxd+eiwOaQP+BADcnkIrKq+1NvvPG+9M6TsyEDYnCgCNRhDH4XXUoyUnJLlYLOUNEyZOw/FjJ7h+CZhgtMDHrzPeS01S5WiE2vDSmtSas/tcjhz5rmH48KHQ6eUb920LW110ERsS45xiNEJtlNqaZE+r0fX71b0OXJZjiC1AL85ZgDfXxqFr1/vkXhKxw6O+BvzkG6eYUY+2DBVy9xaMK3X1EIzF6NVTh/z8n7Ft62YKkgqEBo5FzcQkLOs+Sra3epjrqrC6x3jUTEyyazqXqzAJpRVouNaAnTs/wKGcbHrAoDLu7Vyx9oFnUfjISgzt6C9ZqMx1VfhDlz4QHluD2EEhds85cRGmX62XIRjzsXplBMpKTiI4eJrcSyIO1E+jRdaopTg4dDEAxz1KN9dXo4urJw4OXYxtQ+e3eQJX0R8iNR0ZT0xYS9s5J/OorwHFjycwr6ccddiKYu9MYl105Mh3SNv+LgXJiYUGjkXlE4lM6ilzXRWWdR+FyicSmQUpfs165OYeVl6YhNIKCMbixrrImc9eIDdo7nFvrKf6enRpdajMdVUY2tEfhY+sxNoHnmVynt7uz/bA27c3lse+Bjc3N+WE6dLlGgjGIqxeGYHKSoHqItKsfhotDjwSi88HzwNw93qqaV2UNWopk5NeCwoKMXJ0EKZOCYGbmyvEj5ZkD5PtUXc+pkwOwrlzJxEbQ2cvkLubpH0IxY8nYHOfJ2Gur/5NqMR/trnPk/jpsTgmZ5CXl59HxJJXYDAMwOkzpt/0rsr6AEI8Sisn55Akb9Mj6rOg70RMD3gY6wo+QVLJYWjdvBxyPHLTs05u1y0kS5gaj9JKf4dGxkmb+Xl0xtu/fx7hfZ7Am4Wf4rX+TzI7uP/ms07uPNMn6TbPVhflY1nkbFRaCilIhKl+Gi22DZ3PrC6a8MRUTAiaDJd2Li06NEiyMAnGEjw6ZhjOnTNh7ZpVVBcRRbJaqxAZFQ2DYQCOfZ/fqpk+SbZ5QmkFklPW05AeUTRbXTQXGu+edk1RSFMz1Vajb98+klyKkNbK3ncAc+ZF4OxpU5tGkWR/NE6IXEwmAU8Fz8CEoMm4XF3T5kODKEzE6VitVYiOWcn8rBNFN7oSwtpNZ50wni6nMBGnIMUZkLTNI6pWXn4eTwXPwOjRI1FSanHoYap0ZyKqdvyHH5H18T8kOTCI7kzECXSR5CoUJkIYoTARwgiFiRBGKEyEMEJhIoQRChMhjNDnTE7IerUWJZfPo7S6AudrrRjUOYDZZKozozA5ia/L8pFZfARfVZzGiZoLQMNVwOUeoOEqDg5dTGFigMIkse57o9p23G/DVVROTGrRQSEnrWZs/uVLJJXmAbhxGmrTU1F5f4ufklCYJNaljcf7tuQv/0mrGa/8mNH4IjElvfdIzShMKmK9WosVP2Q0Hnml5DfyqRGFSSX2mI9h8vFtAEAhkgmFSQWW/Hd7492IyIfCxLHaa/WYlrsBX1jPUZAUgMLEqdpr9eiVvQyAvO+AJTdQBwRnxOBMzHlT5pWQW1GYOPTMobdxsMos9zLILShMHPqx2kJbOwWiMBHCCIWJEEYoTIQwQo/GncRte/oarkq7EBWjMKmUGB6tqyeGdvTH8Ht7wru9F/w8OuM+dw0u1degvNaKoxVF8HL1kHm16kBhUhlzXRXGagKwTjcVD3fte9c5pVCMlWhl6kdhUglzXRVe9B3M9H2upHUoTJwz11djrJcW+0dEUohkRmHimLmuCpv7TseCvhPlXgoBhYlb5vpqHBy6GI/6Ov5AetIyFCYOmeurUTgmlrZ1CkMf2nKGgqRcFCYO+Xe4T+4lkGZQmAhhhMJECCMUJkIYoTARwgiFiRBGKEyEMEJhIoQRChMhjFCYCGGEwkQIIxQmQhihMBHCCIWJEEYoTIQwQmEihBEKEyGMUJgIYYTCRAgjFCZCGKEwEcIIhYkQRihMhDBCYSKEEQoTIYxQmAhhhMJECCMUJkIYoTARwgiFiRBGKEyEMEJhIoQRChMhjFCYCGGEwkQIIxQmQhihMBHCCIWJEEYoTIQwQmEihBEKkwzM9dVyL4E4gKvcC3A2Ezr3xsNXu7fpe7R3uYfRaghLFCaJvf375+VeAnEQ2uYRwgiFiRBGKEyEMEJhIoQRChMhjFCYCGGEwkQIIxQmQhihMBHCiERhckV1NfWjEenZ/t5J0+gjSZh0eh9MnRKC6JiVsFqrpLgkcXJWaxWiY1Zi6pQQ6PQ+klxTsm2eTh+IdYnb0KlTL6TvyJDqssQJpe/IQKdOvbAucRt0+kDJritpzaTz6wyd3gdhoQsxeMgY5OYelvLyROVycw9j8JAxCAtdCJ3eBzq/zpJeX5YHEDq9P0pKLRg9eiTCnp8Hk0mQYxlEJUwmAU8Fz8Do0SNRUmqBTu8vyzpke5rX3s0VOr0Buz/PRo8e/RC/Zr1cSyGcslqrEL9mPXr0CMDX3+ZBpzegvZt8U0WyPxrv2MEDOn0glq9Kgrdvb2RmZsm9JMKBzMwsdO/5OyxflQSd3oCOHTzkXpL8YRLp/DrDzc0VISGzMHjIGBQUFMq9JKJAeXlHMXjIGISEzIKnR3vJ66I7UUyYAHHr1x0lpRYYDAMwe244ysvPy70sogDl5ecxe244hg8fer0u6i7rlq45igqTSKyn/pW5Bz4+AUh8a5PcSyIySnxrE3x8AvCvzD2y10V3osgwie7VdIBOH4ilkXHw9e+H3Z/tkXtJREKZmVnodF8glkavg04fiHs1HeRe0h0pOkwind4HLu1cMHVKCCY8MZXqKZUrKCjEhCemIiRkpuLqojvhIkyAuPULxLHv82EwDEDEkleoNUllxLrIYBiAH34shE4fqNgtXXO4CZPI9ijdgPfT/41OnXyRsiVV7iURBmx1UdfGusjd3U3uJbXa9TBdkXcVdhDrqQXzYxDY50Fk7zsg95KIHbL3HUBAz0FYGhkHnd6g+Lqoebb8tPPz6waNdzcIRovMC7KPTu+Dy9U1mBA0GU8Fz6DWJE6IddGEoMm4UlcvWWc3a4LRAo13N/j5dUO7gAAdKs8XYUPiCgjGYvxqvSz3+lpNrKe+/jYPPXoE0KiHgpWXn0dkVDS3dZHoV+tlCMZibEhcgcrzRQgI0MGloaGhQfyC8vLzeC16Bd5LTYavth+X/5EAIJRWAADSUhMQ+txMmVdDRClbUrFgfgw03h053c4BV+rqUWY+iRfnLMCba+PQtet9jf/upjCJCgoK8eKccBzOPQpfbTd+Q2UswYMPGbA1JQnDhg2RezlOK3vfAcyZF4Gzp0u43c7ZQvQ/jBg1BO+lbsbAgf1/8zXNPs0bOLA/DuVkY+fOD9BwraHxNz1vxFGP4cOH0qiHDMTRiAlBj+FydQ23QRJKK1BXV4+dOz/AoZzsZoME3OXReHDwNJSVnMTqlREQjPm4dLnGIYt1JLE16ZNde2nUQ0K20Yh+ihiNsNelyzUQjPlYvTICxtPHERw87Y5f3+w2rzkmk4DYFauQ/sFWVdRTO/+++a4/HNJ6mZlZCAmZC7i7cdO5cKva2jpYSk8hdNZcxMetRECArkV/rsUf2gYE6JC2/V3k5ByCv58PBKPZ7sXKSefXGTq/zggJmYmRo4OQl3dU7iWpQl7eUYwcHYSQkFmyjIyzIhhLoNX6IifnENK2v9viIAGtuDPdKn1HBsJCZwPuXbj9wYm/gZp7MkNaRlVPgGsvIi19m91PgO1uJwp9biYqK8uwLHI2BGMRl/WUu7tbk1GPrjTq0Uq3tgDxGCSxLloWORuVlWVt+ijF7jtTUwUFhYiOfR1ZH/+D799ORgt0eh8kv5OAKX+cJPdyFGv3Z3swe94SlJkvcvuEzvao24Rp05/E2vg3bvuErjWYNLoOHNgfn2R+hK+y96O9myvXrUlX6upp1OM2xBagqVNCAIDbIAlGCxquNeCr7M/xSeZHTIIEMO4aDxo/DqazJ5CcsgaC0cJ1a9IPPxbSqMd1vI9GiGwtQCVITlmDspKTCBo/jun3d8gIxvyX5sBiKcCcF2ZAMOajtrbOEZdxKLGeso169HDaUY+ULanw8enN9WhEbW0dBGM+Xgh9GhbLKcx/aY5DrsOkZrqTgoJCLFi4BAf3H4SvNoDL32iAbWvQs7c/Ut9NYv4bTYmy9x3A8y8ubKwjeSTWRSNGjbxtCxBLDh8OHDiwPw7s24Ndu3dyX0+Jox5qrqfUNBrRcK0Bu3bvvGMLEEuSTdpO+eMkmM6euD7qka+KekpNox7iWyPUURflY0PiCpSVnJT0qazDt3nNUcsHfb9aL8N64RKSU9Y4bB8uBTWNRoTOmovEhLWyfAAvS5hEeXlHsXjJqyoY9eCznlJDXQQAgrEYI0YNwca318s6aiPrgSrDhg1pHPWorrnC8aiHWE89xsXofNPRCK7rotIKCKUVSEtPxqGcbNln1hRxOlFw8DRUni9qHPXgt54yKHp0XqyLlPLWCHvd1AJkKVTMNLWs27zmqGrUo42NkyypoTG5aV3UmtEIqSguTKLc3MMIXxSF48fyZXt5FQvi6PzmTQkYNWqE5NdX08+xZ+8AfJi2RZafY0soYpvXnFGjRuD7o98iLf0dCMYijuupG29JlLKeUsrb9NrK9qi7CGnp76Dol+OKDRKg4DCJbh714Ht0Xqyn4tesd1g9pbS36dlLbAGa88KMNo9GSEWx27zmmEwCFkVE8T/qUVoBTcf2eCdpDdO/JOk7MrAwIgbWS1c4r4tMCHo8CJuSEiTpXGBF8XempgICdI2jHh08PfhtTfLrDE+P9o1vnW/r6Lz4Nr2w0IVcvTXiVuL/z127d+KrL3dxFSSAszCJgsaPQ9Evx1Uw6tG2o8hMJgFhz89r8jY9fy7v1uJoxIbEFfhfcSG3g5lchkkkjnq8EPo0t6Me9h5FJh6l9cmuvdzWRVfq6iEY8/FM8CRYLKcQ+fIiuZfUJlzVTHdSUFCIRRFRyN6bzfeox12OIsvMzELIX8IBgNvtXNPTUeVuAWKJ6ztTUwMH9sdXX+7Crt07AYDresp2FNmsm44iu+koretfwyOhtALVNVcaT0dVS5AAFd2ZbpX41iYsjVwMjXdPbjuhbUeRlSHo8UeQvfcb+Pj5cjnpCthagC5azmB1/JtYvCgcGo2X3EtiTrVhApqOemyHj5+O27+IV+rqud22io+6Q2c9p8gWIJZUs81rTteu92Hb1s04cuQb9O4VAMFYLPeS7MJrkASjGf5+PsjJ2dfq01F5pOo7063UcA42D2xNvnXYuXOrU53nruo7062Cg6ehoaHs+qgHn6fQKpltNMI2StPQUOZUQQKcLEyi2JhXce7cSUyZHATBmI8rdfVyL4lr4udFUyYH4dy5k4iNeVXuJcnCqbZ5zcnNPYxnw17C2dMmbjur5cTDaIRUnD5MItvwXATVUy0k1kVp6UlcdHRLwSm3ec2xjXqcaRz14LE1SQriaITtrRFnKEhN0J2pGWppTWKJ59EIqdCdqRlia9JX2Z9zPerBimC0oIOnB77K/pzL0Qip0J2pBWyHNC6Gxrsbt61J9rAdsnkRySkJXB+yKRW6M7WAbdTDxPWoR2vc/NaI0xSkFqIwtVDXrvch6e2/Ij//Z4wa+RAEY5HqPp+yfV5UhAd+1x/5+T8j6e2/0nt+W4G2eXZSw6somxJKK9ClkwfS3v8bt5OucqMwtZFt1OM1buspW110FhsSN3I/6So32ua1UeTLi2CxmPBM8CSuWpNuHhkvpyAxQGFi4Maox3fo1VOn+FEPwViMXj11OHLkO2zbupnqIkZom+cASj2n4W7nS5C2oTuTAwQHT0OlpbDxrR5yj3qIb41YvTIClZZCCpKDUJgcRKPxuj7qYZJt1OPm0QgTYmNeVeXZC0pBYXKwgAAd0ra/i5ycQ/D384FgLJHkuoKx5PrI+CGnGBlXAqqZJJa+IwNhc6IAOKaeEuuitNQE6uiWGN2ZJBb63ExUWgqZv9VDqW/TcyZ0Z5LRjbd6fGr3qIc4GjFt+pPYlJRA2zkZ0Z1JRjfe6mHfqEfT0YhPMj+iIMmM7kwKYhv1mHvXU2jFFqDklK3U0a0gdGdSkPkvzUFlpfW2ox5NRyMqK60UJIWhMCmMRuPVOOrxwO/6N4563DoaQZ8XKQ9t8xQue98BLF8Rh9VxKxA0fpzcyyF38P/Q5iF/Z10w0wAAAABJRU5ErkJggg==;" parent="1" vertex="1">
          <mxGeometry x="720" y="432.59000000000003" width="16.25" height="18.41" as="geometry" />
        </mxCell>
        <mxCell id="EPyueugh2iobcvaEf9Se-13" value="" style="shape=image;verticalLabelPosition=bottom;labelBackgroundColor=default;verticalAlign=top;aspect=fixed;imageAspect=0;image=data:image/png,iVBORw0KGgoAAAANSUhEUgAAAMgAAADICAYAAACtWK6eAAAgAElEQVR4nOy9e5ReVX3//9qXc57L3JMMCYFAQoBAIje5iwrSFn8slV8tVr9WoerX61d/rRbbZVvbr12rtnYt6mqt32Wr1S6VL9IKtkoRLHhBkAhIQBICCLmREJJJZpKZeea5nMvevz/22WfOM5lMBnMR7Xmzhpk8z3nO2c85+7M/t/fns4W11lKiRIlZIX/RAyhR4qWMUkBKlJgDpYCUKDEHSgEpUWIOlAJSosQcKAWkRIk5UApIiRJzoBSQEiXmQCkgJUrMgVJASpSYA6WAlCgxB0oBKVFiDpQCUqLEHCgFpESJOVAKSIkSc6AUkBIl5kApICVKzIFSQEqUmAOlgJQoMQdKASlRYg6UAlKixBwoBaREiTlQCkiJEnOgFJASJeZAKSAlSsyBUkBKlJgDpYCUKDEHSgEpUWIOlAJSosQcKAWkRIk5UApIiRJzoBSQEiXmQCkgJUrMgVJASpSYA6WAlCgxB0oBKVFiDpQCUqLEHCgFpESJOVAKSIkSc6AUkBIl5kApICVKzIFSQEqUmAOlgJQoMQdKASlRYg6UAlKixBwoBaREiTlQCkiJEnNA/6IH8KsEay3WWgCEEAghfsEj+u8Fa+0Rv+fC+idaYl6Y7XaVgvDSQvEZHe6zKQVkHihqhYO9N/N9ay3GGJRSR3+A/41xKK1hjAEOLiiHEqBSQOaB+a5IMx/W0VD5JY4tSh9kHjiU5vD/nnlcKRzHFkUfEA69mAFIOXecqtQgRwlzmWUlfnlQapBDYKZmSNM0f01KeYAAeJv3UCtTiSOD2RYir0mstbkP+PM67qUGeRGI45hOp0Mcx7mQFH/7H601tVqNMAxLDXIMkaYpSZIQxzFxHGOMQUp5QPhdSpkvbn19fXOes9Qgh0Dxxo6Pj/Pe976X0dHRfOL7aJW/8QCdTodPf/rTXHrppb+wcf93gl+klFLs3r2bj370o+zYsQOlVP58rLW5YCRJglKK973vfbz1rW+d89ylgBwCRUFotVrs3buXHTt2kKYpQP4QfGJQSokxhsnJSZIkQevyFh9t+GeUJAmNRoO9e/eyffv2A7R78fmEYcgLL7xwyHOXT+8QSNO0y58wxuQaQylFkiRdxxcfRCkcRx9+8kspUUqhtc4XK/96UUD8j9aaSqVyyPOXT/AQKFJGZvvbC4F/IN5JL3FsMJPS480p/57X9P49/ztJkq73DoZSQA6BovYoOuJpmpKmaddKNdMv8U5iiaMLrx38PS8+m5mRxmL+Yz7PphSQecKvPkopgiA44KEAXYIy3wdQ4vDgNYZSKjex/N/eIT8YcXQ+AdxSQF4EvOZIkqQrcuK1CHSr8VKDHH14H8PDGEMcx0RRlC9SRR/kxaIUkHnC3+ziTZdS5nZs0TEss+i/WHgtr5Tq0u7w4ssQyuXtRaLoBM5kinqh8e+VAnJsMXNh8otX0VcsmsbzeT6lgJQoMQdKATnCKJk7v1ooBeQw8fNGR0r8cqAUkKOEUkh+NVAKyFFEKSS//CgFpESJOVAKyBFCqS1+NVEKyBFAsTAHprO7ZR7klx+lgJQoMQdKATkCmI0tWuJXA6WAlCgxB0oBOUyUfsavNkoBOUKYKSilqfWrgVJAjgJK4fjVgYaML38QWcnXxZnPXMx4Xbg/BbPUZNvCufMTHqR228r8GHuw6wtIcdItCtef5bADXrDZlWV2fVGuESXmgLQYLAaDIcVNvDj7SSnMLzvLj8kOMpAa909LiiUCG7k3kxhsQRhM9kHrP5yCTSBN3GvWgHWH5df318qumxqIscT+vRRMYvMxpIXDu8abfzdDmn1nezBBnSeKhVO+FqRYSHWsUKxRma1xhH8/juP8uCMJX2Xp4a/jr118b74a9mD3sFiTc7ShZ3MxJYWV22OmxijAJmC1O8QgkKjpA5XKJmj2byHc7LfgBAUnFAawqdMgxiClQkrhLpwa9xkhIVQo5YVHQGpBCaQUuYD775AkhkBIdw3phiTzLyZn/P7lhC8D9uW/xYRlFEUAXR0egyAAjlwyM45jgiBAa02SJHnFZRAEeVFSsaBsZrHZzO0hfGtXX1tefM2XN/uF6FgkYzXGmTRKyGmTpri4CEAYrB+HyCrm/Hs4GdBAmlpi4W6QEmBTizApSsv888JYSAUg3eROYog7EBmII4hi99vP5t5+CBQIBUoCCrREh5KOgCQIsKQIY0mFJBYKAVSAQEtI3PjBnVJb6b5DbhL+cqPYsA7oqoMPw7Dr2E6nQ6VSIY7jvLnE4U6wIAhyAdVaY62l3W6jtUZrTZqmXUIwW41+sZ+xP3a21/zrxfLmYyMgmcrIhcObNMJk75n85QM1SwJCg5UoKUizI1JAKoFSGkyCiBPoxBCnMNWGF3bT3L6dkU1P09m7l8nde+hM7IdOB4FFCRDKCZYMK/QPLWLR8uUsPG0lLD8JufQ4av19UKmAVCAEWjodZpFY6zyNXDj8wAsqRojZvtCRwbEyAXz3xmJPLv87SZJcSIwxeaM0r0WOBGa2PAKoVqtdY0vTlE6nQ7vdptVq0Wg0GB8fZ2pqina7TafTIU1TqtUqfX199PX1MTAwQF9fH0EQUKlUqFarXY3fjhV00T63ZJPGkP3PZA6xzeeVwuRGicCCSElNgpEhEk1gMzlQEErQxBA1Ycdu2Pg0yePr2f30M4zu3EU8vp+6SRFJh36sK7QPXSvPOEkwaUpNh0gU4badtNf9lI1JhKlWWHzaChadcQZi1RmwZjUsWwqhRqUWWa0gyVZP6YQkd+rV9FcrfJEjimMZxfJmy3333ccLL7yQmyHGmNzs8b2iwjCkWq1y8cUXMzw8fES6rvjmbDM10tTUFCMjI2zbto1t27bx1FNPsWXLFnbt2sXo6CjNZhNjTK6BvF/hxz04OMjQ0BDLly9n5cqVnHPOOaxcuZLjjjuO/v7+vIPi0UYuIF5pKMhWXb/y2tztkAgKyhInOhYpXSzIpCkCRRWopsDEJIzuYurBtey9937iTZvQ+8dRrRbDStAbhARJAkmCwZKkEUnbOq2hFFopTLOJ7cRoqxiqVhmWksbEOJ1169i68UnSxUsxxy9h+OKXM/TqV6NPWAbtFGhDGIKUpEjvyzvNJOHgKvGXC0EQsGvXLv7xH/+Rhx9+OO88n6Zp3r/L96PVWrNmzRqWLVvG8PDwEWtJVNQg+/fvZ926ddx///1s3LiRzZs3MzExQbPZzP2Top/RbrfzNq2+j1WSJIyNjTE5OcmmTZv4/ve/T71eZ/ny5Zx77rmcd955nHvuuaxcufKIjH8uaLwfjPcrDEplzrOwJDjnVwAKOT2xpLPjW2lERSkUFhUnoIzzJ7btgMc38tyttyF3P08wvocBEirakOgOkYmJYwURBCikklSURlpI0hRjLcZaVFDBSo1JE5o2IrWAFoRaEUhDc+d2or17eO7ZZ3jhe/dzxmWvRl71G3D8cc6xr1WQQubDjnBCokX2HX/JnXSAZrPJ5s2b6XQ6uaPuNYn3AZRStNtthoaGWLp0KcAB/sHPg3a7TbVaZWRkhLvvvpvvfOc7PPHEE+zfv580TdFaE0XRrA2+rbVUKhWSJKHT6QDkzd+stURRlH+m0Wjw2GOP8eijj3LXXXdx/fXX83u/93uHfe8OBScg2RzxId8UkMJiMuEAiUK6nEPBgU+RKFXDkKCiLEy7bxzWPcqOu+5mdO1PWDTZYKGwBBjipIXpGHQoESIgMSk6rJAmFmsswiZo4XwZY124stNpE1QrqEATp87skkhEYkhbbXqtRlnoT1P2P/0067c+x8C6R1l+9WvhVa8AOYgIA5SSToOQKQ1pChrkl1dIrLVMTk6yb98+tNZ5mLfYWNs75dZalixZwsDAQNfmMoeDqakp7rjjDm655RYefvjh3Jfw8ELix+pDt17r+AZvRb9oZv9jL1z1ep04jvPveyyg/YwpBq6siwtlpnpBOLwjItxK7CacdBoDYHw/0a238cydd1Lft49F7QZax7SFIEKBqGIMyFSirSIEWiZBBQptDDJJ0CbJQrGGyKSEtZBWMkVsJEpqNCBjQ2hDrBWkWiBEStJpMSQVCyLLxKMPsX33Cyz52TMEb7kWlh4HtZoLQKcClCC2Bqm0E7bDuIHHwt8oRnSKu+d6H2Ljxo35RCvuieFNmiiKqFQqaK054YQTCIIg91PmY2YVfYxi76lHH32UL37xizz44IPs2rWLarWKlJI4jvPxhWGY50S8EPjws/cjiv2qZjbeK3bL976KDy0fC2gffvXBW1FIdMjsvzR1FhUC0tgiQ4EVzoFRUy2kVLDzeXZ97V8Z+8H3GRgfRTbGGeitMBUntFKDNgGhrqGFgthiU4HUCh0oEhuBSdFYUitcPgSDVBDHHSwGIQVCgkwtoVKECSQW4iTGAtqmKJsAMTKFzvYtPPed/ejdOzj5ve+GFcuR1Voe8ULog7IHXgyKq9zRwszzzwzpPvHEE109amc7tt1us2DBAk4++eQXLRxe0/ioVLvd5tvf/jaf+9zneO6555icnMy1l9dWXkBmawHqzcBizma2fIkXDO+X+NBxGIZdC8TRhPaaQ2EOXEkzioiJcIkFCYSCVAIYAhuDMbB+Iy988avsX/cIC5I2Kmkiq5JG1KTa00vcjrBti+10UCJwgqYtkTTIRCBMSiotshJghCRJY0RqEMKihKAqLEYKrPE5/4REJkRpgq71O4dUxKTEtJMpRKjokWDH20w9MMmmPXtY+b/eA2vOhKEhWiKgisLGII7SQnSkBcavoMU997TWNBoNHn744XzSzzSbiq/V63XOPPNMYP4s5OIE1Frz3HPP8eUvf5mbb76ZqakpACqVSh4Q8JPfbzEQhmGu0bwmKgqP/1yRATBbXsebaVEU5d3bj0Xf47w37zRvyZOasosbCIMs+S1xESZitDXQbsHjj7Pzq//K2I8fYnGSMlgRJFLQiGLCepV9Y/vpqdTpCasEKYjUYIUh1Ti6h64TIWgJQyQEEWC0JEChkWhjIEnQ1qJIEQYqwtIbaMKwQrOTIIxFaokKKhgMsTRYIupSUo2aTDz7NOv/z+c46/q3wa9fSa2iMB2JDI5utvBIJLIOJmj+3Bs3bmTr1q2zblYJbtUPggApJX19fSxbtuxF7XxVXNV37tzJ3/3d3/HNb34zF1ZvQvlolNdg/rrFxF4xgODHWdymYLYtJIqapNhV/5glCnMZtD726f+d/SRAAKl0KThhO+g0hiiFjU+y/ctfovH4BgYDQzUQtCcbBErQU6nTbicM9g5gowTT6mCs0wqJhii1tHTAaJoSDwwiFi4gPG6Y+pLjqQ0MYBJIGy06o/to7t5LPLaXSqdNPYogiZBxhOi4jK3UljRNIDXIShVpDVNESAE92jJgIqJnnmXjl/8vq5ccD6etQtb6nRM1K9nmpYPZzDe/qsZxzPe//33a7XbXSg3dXc99ROiUU06hWq2+aB5Wp9NhfHycz372s3zta19jaGiIVquFMYZWq9U1ViFEHmoOw5BOp9O1FYTvvO6Fq0g98eHfIpWk6FP5zTm9hjomeRDRtYIWM88ZhynT2BEGhaEiUkhjeHYbI7fcxtT6J1hkYqJ2E8IKYahJooiqCmm32+7kSfalKzUmhWVSWVg4gF5yPGdfcBmcuRpOPxV6+hxpEQW6ClJDnLh8ysgueHIDzz+yjrFnn0FPTNJbDam0JugLNTYKiNoxwihkWCEMQpROSdoRSafJ8T0L2L11Gz/99Gc454MfgnPPhSDgl6HB/cyV0k+gTZs28cMf/rArbFo83pth3oZ/xStekX9+viFeay3j4+N88pOf5L/+67+o1+vs27cv754OdGXyiwEEP5m9SaS1plqtorUmCIKcw+X/9t8rSRJarRbtdpt2u921Y60PBBRD2EcTOvfJM0Kf33EvVy0Gl5MQKQoDxPD887S+eSd7friWYWGwk1MsqNQgTrFCoKqafeNjLFiwgGZjCqkCYhGyF8V4/yDVNas4+dcuJ7zwfFi4CHTGtbKA0m4gRkCaQlVA/xAs64NzVnDC1ZdzwjPPsuf+tez88QPUXhgljVvUVB9BvR/bkti2oJYYYtvEyIje3l5E3GIwjrDPbGH7TbewrKcHzjgtM7Fe2kIy23YK+/bt44477mDz5s1dW40ppYjjuOtYIQTHH388l156aZeJMh9MTU3x+c9/njvuuINOp0OtVqNSqVCv12k0Gvn1isLhk37efAqCgFqtxqJFi1i5ciVnnXUWZ5xxBosXL2bZsmXUajVqtVp+vT179rBjxw5GRkbYuHEjmzZtYuPGjYyOjhLHcU6+PNrCAX75zKkmsotSIjItIrUgALRpQacFP1nHz75zFydYg51qUQ00phOjESQ2RijoHexnfGqSmq7SJGBvrUZ64kmc8urX0HPVr8OKEyBUWcLRk6Kkc3aMzRiQ0uUrRKbKFDC8AAZfzvCJJzF89mq2f/s2Rp/YSGV/zLBUoCxhagmlRCWSNKzRbjfRxjJQqxCNTzC5YT3Pf+s/OGHJO2HBgiyEp5nN2i/sfkfRBPV1KPYYWGgzndEkSdixYwd33HEHrVary5xSSuWJOT9pwzBk5cqVrFixIv+8jzodytG9++67+fKXv0ySJPT19TE+Po7WmqmpqTxM67WDF4oiq1drzSWXXMJrX/tazj//fJYuXUpvb+8BIWtwC4HnYp1yyikkScIb3/hG9uzZw5NPPslDDz3Efffdx7PPPpuHio82tNMZjuHqss0F1QGgXP6vogwiSeGR9Txzy7/SH01BFGFNRFCt0Yrazq5MLLFNacQxJtQoquxMFenZL+ec698Gq8+GagChxopMCIvUc5eyzyAKM1Q5TWOsO/ykHjj+BJadvoYtX7uZqR+uZXRkhEX9AUljApWCUpLESBIUul5lvNOhXqnS2reHsXu/xwmnngjXvA60xKJJBZgUpLJ5uNvlSbIqE+HCz8JKpPV3yWCxB/gKM1fxuVCcqEXbuvh7Zj3FZz7zGbZu3XqAPe4nXLvdplar5av761//+jyqNDNEOhstXQjBunXr+Nu//dtcS3Q6nVnpK953mElYXLNmDe9///s5/fTTOemkkwDyLdH89ypqgZn3ywvxkiVLWLx4MZdffjnXXXcdDz74YO6/HH02L9b5HYVKviLJ1dgsBzLVgIl9tL9zN+GuEXS7hZYCUakw1WpRCUJMklCtVonjFlYJokqdKVFn2YWXMvA7/wPOPAPqdVCSJG2hgwA322erOPSQ3X/7fypABrDsNFZ84CO06gPs/OE9jDy/meGqYGqiSV3VHLPXCGwK2ioCAQsDjRzby7Y77uDk1afBqrMQYY3IOqUmcLkYKeSsGsQKDgxqHAZ8iHZmdrvodHvqSKPR4Ctf+Qrf/e53ieM49zEqlQppmtJutxkYGGBqaookSajVapx55plccsklOTGwuG1cMdPtw64Ae/bs4eabb2ZsbIxWq9VVj+GjStbanELvPw+wfPlyfvd3f5c3velN9Pb2dn2nYvRsPtE0L8ReCJcuXcob3/jGnIZytKFd2jqrhKMgHNaZV6kEaTN+1aPreWbtw/RPtdB2mlMDEmEsWmjarZiOhcrQQra3Wyx59TkM/Nbr4MzTHTVduMolpQKXVT+sWHYmMD11am//LXpli8Y9HVp7xlChIAkDjEkJBfSmkFpBqxOBCKgj2PXsVhbe+wC9i1fAokHn/uCYBNoXjPjrCImwEpvVzaTSIOzhm1jFCVvEzIIiP/nvvfde/vmf/xlwmWkfTgUnUEEQ0Gw2c/ZukiRcfvnlnHrqqbM2lpg5ef0x999/P/fcc0/Oup0ZRvbCW6vVGB8fp7+/PxfGD3/4w1xxxRVd1/Ka42DCcjDMzIN4+O92tPeil9av4NbZ1YrMwvHBLIEraJpssu3uH1CZaDCgQwLhKvaSJLt5xmKQxFZiq33sMYL+s89m6f94M5x3tluaTeouJUDIzBk/rNHjzhkqGBxg8fVv58TX/AYjYY2o3stUnCKEQiEgSQmQkBhMs0NdSBYJzfP3PQSbt0FzarpoMo3dIFM7LSRWIG1mbElX82Xk4WuQmRoDpqkdxdCotZa1a9fyyU9+ktHR0a7qOh8K9aFVb15FUcTKlSu56qqrupz4/PYV8g5+IqZpytjYGLfffjvj4+O5k+3NMn+dYgnv0NAQzWaTCy+8kBtvvJELLrgg/z7FCFaxGGq+oWYfzvbX8xE5ODYtl2TsHfOM/6RIXLQqy4PkRVSPrmfsJz9lODX0pgZpMyKaVNjEooKQKEkJ6r3EPf3sG1rEqe/6n3DWWVAJHPU8cEIihCBODOJwM6ECbF25AsVKH/QvovI7b6V6ySW0qv0IWUcYgZaKZtImJaG/UqFHSIgjZLOJ3byD9L61EHcIi464BYyc/rvQeMIIsL6I7Ag9o6Jt7rPQURTl+YG7776bD37wg+zatQutNZ1OJ2fveq6TlJJWq0WtVkNKSRiGvPvd72b16tVdE7I44Yp5E68p7r//fh588MHcrPHHeV+lKJydTgchBFdffTWf//znOfXUU+nt7c1NIM8kLsIL/3yFxHPHvLb1WuNYRLHkdL2UmxwirwxxbygLmJQXvvt9+scn0c0WNmohjCVQYRZ7ymxorRm3MFatsOba34TzzoFKnQ4aqxQ2UCRkm7xr2d0U4udAiiNNtpVwnBFVhwVDnPa+9xAft5hOpeqEVmkIFC2TgLUEUjmTMEoYjBO2PfAg7B+D1hQKg1aawqpRYPxmpqg1GOEYAYeL2VZ2nx8Iw5DR0VG+8IUv8JGPfCRfOaMoQmudU8W9pimS/cbGxrjyyiu55pprgO7yW685/ISfKSzf/OY3GR8f78p4F6Nk/lhrLf39/Zx//vl8/OMfz/2g4vW8YPnoVlEo5qMBio0biptz+ntxtFFYwk3WWMF0v5MmsHUrezdsYFiAiiNskrjiKeFo56GWmCSFMGS8ouk792XUfvP1UK0CVSpBnSh1NHqldb7qmiNAV7IYApl1cUgk1AdgyfGc8ZuvZ19dk2amgaqEpErQMDEdKUBJ6mFAn7F0nt9B+pOHIY5ygj8zH55wzGZpHbNZ2lniCT8HZk64Yrns448/zp//+Z/zpS99KV+poyjKk2WdTucAgqKPUr385S/nne98J5VKJUvYHnjNYhTI2/PPPPMMjz76aL5Se01RLHctsoVPOukk3vWud7F8+fJcY/hJ7SN53gz0oeAihWQ+98drUz+O2bTS0YLvG+JQXBEFWYVRSuORx5ATE4RpRKgFJvtAkiRIBTY1aKmYsoZwxQmc+LqroKdGR9fdRIshVJrURI5ILwVxmhY6jPycg8dkP9mk1lk/iN5euPR8hi85n6RepRm1iUyKqATEWpBISI0hjROIW/SKlM0P/MjFs1NDiu0WkOwm2SyqNd31pTs3cjjwq7mUkt27d/Nv//ZvfOADH+C73/0ue/fuRQhBkiT09PTkNI8wDHM6B0w7zosWLeL9738/l1xyCUkWWfQRpqIP4SdfkRzoHXNv+8/8jIfWmlqtxvXXX8+VV17pbpPo3l65SKt/sZqjCE9LAXItdLQZ1B46b75mTZcpYQUIa2GqxfaHH6FuYkzawSiL9WJlQEhJErcJdUhbCQbPexmcuzrTHuQ2lLBQkRqLxWIIs5DR4ciIAMK82tytKDLBZeWPH2Txay5my8MP09OqY0RClESEyvlKVR1i0hghBTZuMrVpM+zYCStXgKq401knKL4UJhWZ9jAgpPFFlwdg5oMrUj+8wzqTRi6lZO/evfzgBz/gG9/4Bo899hiNRiOP4PjKvFarRRiGeZbaR6v8uRcvXsw73/lOXve61+E7jcC0yTNbrsG/Pj4+zk9+8pPcEfbRMX+tMAxpNpv5Cv7KV76St7zlLV2JweL5i0TDruf2IgWkeHwxanVMwrwqLzgXbkIYQMqsPj2FnTtR+/ah08QRDSV55xIpJVHaRoYhEYKGDjjlskugvxesdDzAIpUlK0k83CKlaRisjVylvAzylA6BhN46rDmD2rJlTO4Zoyol0mqkcPXzNjVYI+jIBCk0takmPLMVVq7EZtEJKwVCTOsJm+kPZV2Aq/j15kKRKuKTX0UTYdu2bXlYtSgYfiImSUKj0aC/v58kSWi32/T39zM1NUUYhrRaLYIgoL+/n2uvvZbrrrtu3gVFRVNn9+7d7NmzZ9YNgbw2qdfruTn29re//Yi1D3qpQuc0d0FGUCy6JRa2bEGMjSJNjFUUatQtUlpMajFaEBlJ//KT4ZyzIKiAUShDziBB+lafGXxbnq4XXzzcg8l8JyExAmJjEEoRLhlmyfnn8MQTT6CtpYYhjC0YgRUuZJsoV0NVmWrCxifhN16DtQYjJEKJvPOiReamJYCyrrlE3sHxIChqCl+/vWfPHvbs2cMjjzzC9773PbZs2cLIyEhO8Ot0Ojmxz1PHa7VaXphUr9fZv38/lUqFTqdDvV6np6eHD3zgA7z97W/vyoscauIWj9m6dSs7d+48oGIxTdPcAW+1WmitecUrXsHFF198UF/gWJg/xwIFO8ffyIx/JYAkgp3PI6cm0cK4SWVdjZSw0zZzx0rGpeSMCy9yLFy3/E63SZGu9gOyEl1bSMId9sKT5/xBSKR29BCDAhnC+ecR/cftMN4gMBKbJs6HECpf/bQViChh8vkX6ItTtJBYl0+HbDkQTNNLXgx8GDYIAqrVKj/5yU/44Ac/yO7duxFC5E60p21IKXPinjepFi5cmGfNvUap1+v5JDzuuOO44YYbuPrqqwnD8EXRwYvmz44dO9i/f39Xphym6StCCDqdDtVqNY+OHQy/KholExBTWAXdxBAWiCI6+8YQnTbCGqwFJbKSVYMrVJIKIyXtShVWvyxrj6L9qfLGc0l25rwzijgS1WBOEATCSXTmRgXCZXRIA1ixAjO8EDvWoJJAW5qMfZaihEQhsKkhtBbTasH4JHJwIEsDpSacalwAACAASURBVNkVsjBqljdMs8vNB5635JN/rVaLiYmJfBJPTExQrVYJgoBOp5M71b6WfGhoiMnJSXzTgmazSRzH9PT0kKYpl112We6QFzPhL5ahkCQJe/fuzZ32onBorWk2m1QqFfr7+xkeHmbVqlXHLJL0i4T2PbCydBFCZMKRGOh0iCf3Q5q1XzEGaSVSKEe1EAKTGGS1QtC/AAaHIKyDrrgu0YpM+KbNlCLn63BhgcQKlFAooTB2et2XVju/pNpDz3HHEz/5nPuMksTWoC3YNHW6wYCUKSaOYHwCrPORjDGujREuH6QyaomRFBjQc6NIr/D5gKIJ09PTQ7vdzp1tz61SStHb28v4+HieF2m1WvT29tJsNgnDkLe85S1cd911nHrqqbnzWgyhztc3sNbSarUYHR3tSlYWfRD/WqfTYdWqVQwNDR2TktdfNHSBj4ozTsiWSQudDu3WFNamKOFo6Mq4HILxy3VWi9u34Dio9oAM3AotXEM517bUeiPFRceKIzgsYZFIUcn7YEvvFCjcMm81GMGipScwISWRcsrNpIYEg0ggyGQgkRnZrhPlPpmaJWlqRBZK9gvJISQkiqI8guTLRn1otlijPZP+ba2l2WzS39+PMSb3X4wxXHjhhXzoQx/i8ssvP+i15stT8sLUarVy86oYki36IL5/1fLlyxkaGjqABfyrCO07JLoYjbPj3aRNIXGrqrIGjUSZjHpgLViT2/GRNYRDA46pa1IMGu26V2fuhkAexcq9NDVoIYsJiuxrCRCa/kWL2acUaSpxnSIThAiRUqCMmyAx0IpcPsF53tY1yy4IQN62WGQMg3mgmFH2ZpUvHS32iyrSz4vNDxqNBrVaDSEEfX19vOMd7+B3fud3WLhwYdc5PQ/LX2u+9R4ecRznTRigOyvvz2mMYeHChTkx0Y91NsxW5PXLCEdWNCpvipBPiEBDEmFTCEUAUQcpDFQgIUGj0caV6BotiLRwkSoNqWkCHRx1RSPQB0+nHWawQwGhmo6GpdJgZQIqcfUbQiBrdRKyLGyaEqQGkSaEUqEzmkyMwShB1G67CJsVEBeay2WmlRFZFt0KxDyIWEWuE0znFIpao0j9KH7Ol8z6z8dxzKZNm9iyZUtX7XaxD1Xx2PkIR9Gk8rUjxdyFMSZvvuDZwoODg4cUgGOpWYrdUGbWrRwupLBkRUsedprzLjXCiKwFjyARlpiEhG5+TJRGqKrOmF0JlVkejO9oeCRvmT9fnqyTPuCbUZMFEDhavWV6kxetNQGSNE5cAzmtnFYo0s6tv0L2T29aZdebL91k5iT1D853PC9OtNlyCt60UUrR6XS47bbbeM973sOnPvUpnn/+eax17Tt99jtN0zxqVtzEZi4UtURRc8zsPFIU1peKZvD3pjjWZrNJu90+ImOUOWN35qMWgFYooREoEi1JJCRZeNfZ4s6GNklEHkJKXUIOXILBkuW5vb9bWJER5vAkpugDZOdRSNQ0aR9MStqeQitJgiXKNIVbsRMikZCGAmUgIGuB6aNvSmTVYjLrXexCvRLmHfKdLasO5M0KZhL4Znb38MQ8z+ytVquMj49z00038du//dt87nOfY2RkJA/7Ftmu80kWzqxRn+nc+2w9TPsjLxXhALrMUnD3r9FoAEfGvJNdk8ydlbxJVqAJwgqpkNggwGSdHIS0GGFIs5urraAzvt8RG5NslyirXHKN6dMVs2p+N6jDVoIzxu8cZ5/wdLT2xv4xKgoCJdwmO2ba5k+kIRGubkRY6fwoQVYYk9FukLmJKMhznvPCTOqFn8R+pa/X6/jugd6cqVQqXf2lPOfKC4pP2O3evZt/+qd/4tOf/jRbt27tMpf89eY7Pk9nKQqG1xReiLwZ5pm0L4VkYFFA4jhm//79tFotKpXKi25vNOv583ClmKaQWJtxNsIAVa+TCkWCwAqJtBYpna2fSvcwqlLSHBmBdsc1W0BkUbECipQTe8C8/vkhDPl2DV4A82sJwDA5NoJMXVMJoRQJ2fZjCqwWRMYFE7TW0NuT2U9k1YOSNCsCsNLkGuTFmIu+/sKbKYODg1SrVQYHB/PJ5n0Sb3oV/QGvVbzv4hOKQgjGxsb41re+xUc/+lHWrl2b95zy7N/5QmtNT0/PrMTEYjueNE2ZnJx8SQiHh48GBkHAE0880cVTO1zkrTwSxHQQyOIyYZWAYKCfjpLoSKCNyes/rHUzJU0SKmEFu28cdo/AqtNIpHA5g4xNYjGOHJvlQI5YJ5Diebzp5vdq8M5J1KE5sovBTst1aAwUiZBYKTDCoqUkTg1CaeqDA9DjNEian7LQVMB2kxPnO0W8qRPHMZdeeim33HILe/fuZf369WzYsIHt27ezefNmRkdHZw3PemfeP3D/8D31vdls8thjj/GHf/iHfOpTn+LSSy/N68QPBS+4QRCwYMGC3BkvmlJFP8pa12Gx1WpRr9fneQeOHmb2xnrooYdy0/VImFj5/iBZSigzhSxWSkQlJFwyTFqrQjSJTgXKWqSyWGtQuAevjKGn0YInn4RXvyLfZsDv4mQwTrHY7BocOWfdy0XeeCI7eSJwsbMXdtLe9QKhcXXmJlZOsIXrUiJSUCg6QUDPksUQ6m4pyMar6HbKfbj3UELizRLvcwAsXbqUpUuXct5555GmaVdbm7Vr1/LUU0/RaDRyunir1UIIkVcKeup6b28vrVYrz6pv27aNP//zP+fGG2/k3HPPdaOfZ5i3UqmwaNGiA5rQwXTI10fKNm/ezNjY2EtCQIrfb2xsjA0bNnR1XDns89tsRbc280yL7DslYXgBaU8PUoQEJsgXZmFtRjWRyCSh3omZfGYLRG0UqZs8+fhszpCF3ILpSlscDnKrqjB7BYBxxV7sGSPUjhkrExDx9MPXqUVKTaNSQQ4vzFuRJmmSn84rJGWnXalUzk8TSilzn8In2oohXqUUS5Ys4TWveQ033HADN954IzfccAMXXHBBrjGq1SphGBJFUV785HlRYRjSaDRyX+W5557jH/7hH9i2bduLynSHYcjAwEA+Nn+N/B5nQQOvQfwGOb9o+NCutZYtW7awe/fuF+WDHQrSqIwaJTLGUZEnpSSsXEk6NAgolJVI41aTUCiwliS1VIOQaidi+7p18NwOdBqRGtdxy2Qh4QRDnE6XSTpT7gjYsdYRWVzF+TSnTNkUpqbYeufdLAvqJElELCwyteism4o1Ap2ANZLJSog4/zzXewuoKO15li6gZUFmvpmRrjYkfZHS7ctkYTpa5CeZX/GWL1/Oe97zHr761a/yJ3/yJ3k/qZn5iZn1IN7Rt9bywAMPcOONNzI1NZWfv2ii+fMVzShjDKeccgoDAwN5MZYX4Ha73dUqaOvWrTzwwAMH+Cp+XMUGC0cCxXEX//ZBDB/Svummm/Jr+xZHhwtpYXqDy/zKuFeEhuMWUlm6lEhVQOisWAqscUVPMtDEnYjQpNRbbRr33gutNqHIOk8UGrBpn5lOOWLhQiEEWINCEZNisuZuxG3YsB6xaw9Bo4WwYKRCKJV5W04LShFidQ07vBBOXgZaYqxLnNioEAWxrha9Oxjn2gAdDopFUzDd57avr4/rr7+e//2//zdXXHFFXkrrhcSba14z+aIlIQSTk5OsX7+eb3zjG3nEzDv41tquhgrF9kInnngifX19XYlGY9zuuD7b7/2V73//+zQaja5n6HMSvjT4SLXkKWrCmf6QLyR7+umnWbduXZ43OlLXl4buSdAFIaCvjxPOO4f9JiUJAxIpSUyKtAp3bx2/SitBr0kZufdH8MRGSNpY20JhSbMda53Z4zxdpVwY+LBhLUpITJoSIlDKQGs/TEyw7/4HYO9e6LSdsyUFHWlJlHUaAUUiXaOJ4ZedA339IH1zLNd1RUxbho6KwxEMMkCezCs2VfCrYL1e5/LLL+ev/uqvuOaaa/IMcbvdJooiarVarnl8laLncm3bto2bbrqJ3bt3dwmRrwycWbIqpeT444/npJNOyqNpXhsU9/DwQvPQQw/xox/9qMuc8ZPXVz0eiTCrH8Ns2qoYHr/99tt54YUXuvhtR8TE8v+blUAoJGhN70UX0hroYTLUxFKSGIvUAWniTCwZuDaiVZsgtm+nfc93Ye8I1TRBWAh1hUCFTHcjdAOPzeGrwHzlNb4DSwQ2gQcfZPThh6l0IkLclm82daZemtFFEIopqWn29nHKK1/lGmcLiRTSFb1kN8b5N1kXE+Faj/r2o7OV3L4YFFfEdrvdZev7h71w4UI+8YlP8N73vjfvgj4wMMC+ffu6En1+QlSrVdI05amnnuIrX/lKVy0JTOdjZmbt6/U6F1xwQVfDBm/GFSeb55LdfPPNjIyMHFCY5c3II8H2nekTzSbY69at46677soXiGJJ8uFCup2lpvc+L3YCtUgQCo5bzHHnnsUumdIJNVZpEAopp8NrMQk2blNpjLPrgfvgxw/BVATtOAv3ZCeW1nGkACUPv55ABRUwAi0qMNGGZgdG9zBy152Ybduo2ASpBdIIx1CWAqvcBImFYDQUDL7sDDhzjfuuwpuQMb5OxoDzPbKmFtJmPok5MhOg6IwX6er+Pa01vb29/P7v/z5vfvObGR4eZmJigp6entzE8FWIxWy3UorbbruNH//4xwB5TmVmphzINcWrX/3qnIjohcQvQl57+KKuH//4x3z961/PafB+8h4NGnxxshcpNJOTk3zhC1/g+eefz/dJ8ZG/I1GvIj0pI6duz8yACQlasuI1r6Q51EtbuYRhJ0lAapRwFXNSKXQAQdJE7N7Fnm/dCY9v9F3WSOIUk6Z5oiVN08M2sPLJS/aHDGCqQ/Pfb2fPhsfotTEyicBYF3WzWWMBjKOZKGj297Ls0osgrIIOMBnJXWSUk+nco8UKm3OwlE8YHoE4Q9GZ9H6BN4mKGfW+vj4+9KEP8fKXvzwnEHoTq9ii1L/mE4n//u//zv79+4HuVd1ft5hfWbVqFStXruzqYOjf8wLmI2pJkvC1r32Ne+65J5+YPro283sd7r0ptkPy5mgURdx8883ce++9uT/ix+13xD1cSEddz/7lcyLZxMjSRGBTOHsVJ118DpEWGOl+Uuvq+UhBaIXQEqUNPaZD+5ENtG79Nux22/XqQGGVyFl+1iQcgb5rxOCSmpGBRgTfW8tTd/wXsjlBoFOUNa6OI/OVAiuQqSURlqgaMHz2KuTZqzPOFWBdWTEiM0XA74qSR62kBWUk6ghoEKCrK4n3Ibxf4UOYXjsMDg7y8Y9/nKVLl+aru9+AxgtMsdlDmqasXbuWdevWAW6i+TyKF6pieW21WuUNb3gDQ0NDuWlVbG3qtYiPno2MjPCZz3yGn/3sZ3kI2tevH4kVvDhGmO5qMjk5yXe+8x2+9KUv5cJTqVTyrR+OINVkOtvlcyJQ2IEAC5UqLFzACa9+Fc16Dx0dElZqmMSTUwytOKIZdRAKgjRlIIl4fu1aNt30f7FPPgOdBBXHkMSAdJ3dBdPXnvFzwIuFP4scrgpAK3L7Jd73A576ypdZNDFBX5pgow5aKYScblZnrSWxEOmAqLeXEy+7DE5aDlVXeCWEd5Kni7sOlto0h2/idvWZ9fZ2kcBY3HnJ+yTLly/nfe97H/39/XkewFNMfHjTH2uMYefOndx5551MTU3hW5JCd/VhcaV+wxvewMknn5wLrhcgL6itVivvtZUkCRs2bOBP//RP2bFjR54YPVJO8kwtBy4IcN9993HjjTcyMjKSa0vf5UVrzfj4+LzZBHNBuvpxSSKy1Rh8dx6wEElBoiXUeuGCSzjxsisY1SHNKKYiIZBZt4+KRtQqdFKIU4MOLD2dcSbvvou9t9wCj62HjgEbFMiEDsY4lnAMri7DN9oxqXszW8l9q1G/R7uwIBIDU1Nw+3+w9aYv0b/jWRY29jPQSelTNazSNKI2SkCoFUYKOoGiWa0ycOZquPzXoVoHZfNaMS3dtgwyq0ZXOKavtFnprHAbhabCHHZEa7ZQpNcWHt5UKIZlX/va13LJJZfkk9dHsYrkvaLzfM8997Br164DGrj5kKwPG0vpNvt805veRLVaPcBX8V1NfDjaj/fhhx/mk5/8JBs3bsxX/dnKd2eDj5DNfK04fn/OOI65/fbb+fSnP82WLVtyn8ubfkBe138k8jCy6HNkJTIUbR83VQPQAciQ4ddfg1y+nFalQiwVrShyrT8TXD4kqLoba2MqnSbH7Rtj7399h9HbboGfPgatFkSR2+cwddtISwlSyGmfxDNyhcpNn9ikpDYlIKVmDTo2MDkFu3YzddttPHXbLdgtP2OhNfQIAbGl2ezQ7sTUensIrCVqNml2YpKefkZ6+zjujb8FPX3Yas1R22c8HCjQunCRK5jWtMdidylv4vi/vQAMDQ1x1VVXMTQ01NV53TvoMyNUzWaTO++8s2tCFRONxXahYRhyxRVXcMEFF+RmnM+x9Pb2orVmcnKSSqWSd5MPgoD777+fj33sY6xbt64rQTlb/Yj3q2CaOVxEkQfmBWhqaopbb72Vz372szz55JNUfXPCowiZKvegtQVtTW71+C2fKwacXGqo1uD003jZtb9FY8ECxnUVVA0RQWgFPTLAtCM6jSYitQwoxbAwLOlM8MKd32Lj33wCbvkqPLfZJfJy7rhBuSsQWonK9iZJUmgmxvXSlYKKMMikDa0G7NgKDz/EyF/9JTtu+gryuS30VzSxEEwaSKu9UK1Tq9VojY+jpKSn2oMM67TqA5zz9t+FCy6ASm1WSvpLBcWy2SLNXGvN5Zdfzpo1a7rCoDPb/fi/4zjm7rvvzjfDma2OAshNo5NPPpnrrruOJUuW5O8rpZiYmMiThcWEnDfx1q9fz1vf+lb+5V/+hS1btnS1L52ZBfdlwTO/b7GIzH9+w4YNfOQjH+HP/uzP2L59e1f072hC/dknPvEJF43JBprfW9HFXrVCIqRwNR/LlyN3jzL6wgvUTUJoElKTYq2hIgMCoZGp62aSxi2UMPTXAszUFJuf2khj02b6U4OqVlxizlpX3tqJs2YLjhMmgUBYtElQUdPtcrV7DzyxkcZ/3sUz/3oL9skn6B0fYzCQhFjarQ5WB4hKhU6SEEcdent66TSbtLViX72Xpa95DbX/9xoYHnb0/Bmr28Eq5iYmJrj11luZnJw85I296qqrWLNmzc/9YIpj8fCOrxfinp4e9u3bx/33358fUwzbFj/rX7/gggtYtmwZMD3p/fvFPIMxhpUrV9Jut/nBD36Qd1PxrVB9v69ia9Nmswk4k2vt2rVs2rSJJEkYHBxkYGAgF5KZGwYVKf3Fex/HMU899RS33norf/3Xf81jjz2W00qKDIG5UAw9zzTZLr74Yi666KI5Pz+9S3hOxHLmRJeDLJ1/IoQmCKsgAxa+5U1E7QYjd93OshqYJMDGij5ZhzSmZaagYumEAqmhNTWFlAEnVnqYfOwJtj79LEMrT2PhGWsQZ6yG1We6dqFKZUk6TdZ7x20DvWsHPPU0jUcfo7FlM2J0H8c1xqkHKSY0qHYLgaRaCUilpuM3sqxoGtIg+mvsEZLqOWfS84bXwdKTiY3ImktM37iXUrWch6fAF/0Ej1e96lX8/d//fd5wwTv5xc/61b7ZbPLTn/6UCy+8EJjWHn4C+e3UPGNYKcVb3vIWNmzYwH/+53/mWzj7UmHvv3jKfb1ez8O8aZrywx/+kEceeYSVK1dy6aWXcuWVV+YsY9+BxQsHTPtje/bs4f777+fhhx9m48aNPPHEE3no2rdZLW5EejThevNm9Q+QRa+8R5yFcBIxLTo6qCKSFiw7kePffC1yYie71q1DTiYM1wZo7G8iTETYV6NDBwvEKVQrddLYEI+MsaBaQTZbjD1/H+MbnmKq8m2Snip6wSA9ixdRGxjAWkE01WJq9x7SiQlkY4JKq0XYaFDptKgnIGyHdjumFgYE2coqlcDYBGkM1UqFCMOEhEaoqaw6jeX/691w2mkQyFx5yVmEoqjmXyrwk6loHp1yyiksX76c9evXHzDhPbwJNDk5yfbt27sSif54IUTOY/J7kyRJwvDwMDfccAPj4+M89NBDue8xs/l2tVql0WjkXC4vNBMTEzz11FNs3LiRz3/+8yxcuJAVK1awfPlyFi9enEfKJicn2bFjB1u3bmVkZIRGo0Ecx7l/4+vsvU/U09PDxMTEvHsQ/7zQvmYjEUDWtFMUtIcNsq03cD6CAVS1BkkbzjiVxe99B41/EUytfZy+KEWGllCGmDCkNdFBiwqVIMBKV0dS1YI0aaNiWFoNaUyO09tqkExIohe203nCECHRSqGFos8YTBQRCNcxURqDUgIZSoToQWe9gVtRh7TTRrdTlFaEQpDEMVKFtIMQs2Ylq979Tlh9CgSu0bXtuEbuL3UUI13eRveOudaaCy+8kMcffzwXID/hi9EtbxLt3r2b/fv3MzQ0NOu1vPbw4VJrLStWrOAv/uIv+OM//mPWr18PTG/46c+dpin9/f20222klIyOjjI8PEy73e7yQ0ZHRxkdHeXBBx/MNx8tCnYxuGCtzcfhe4l5wR0dHWVgYOCIJAPngpxOOsgsKZbFOrOGCt4PShOTZ5Uja0kCl3nm9Jex8m2/y6JXvJKdAXR6qySBZN/EJPV6L9Vq3e3DkTo6S9ppo60g1AFRq0k1jenpTDHYbrIkanNSkrIs6rB0aorjGhMs6jRZELfpiztUkgidxo5Vm6S02xGgaLdSUquo1nuphCHCWDCCVFcY0xV6zjqbc9/3fjjzZVCpkgrHMdYB0zmWGc75zCjQLxpFtu/M5Jl31H3eA7q1jaerB0HAyMgI+/fv7zq22D7I50mK2XWtNSeddBJ/+Zd/yamnnpqbVT7T78fmyZQACxYsyH2SIuHQ53j8eHxycyYtv8j/8q18vEnnuWgzNwY6Gsj3IfBbalqy8GXWmERLF8Xq0dOt36QUgMmW315YfQFL3/lOBn79CkYrIZEQVAONTdu0TANTSZAyQSYRGlec1TSWJKzQ0ZBoJ5o2iRHtDjpOkNZxxFKbYKSFQBBUtNtXJEkhSuhVIdUYakaiU4tIQBsNicKkAc1aH1z0ck5+3/+ENedC7wKwFZTQoBJSEU0XcR1CIPxK6RmxxagPTJtknjt1pG3j2fIlfhynn356F9vW2+jeH/GOvZSuN7CfuDO/b9FcKbZLBZdhP/300/mbv/kbXv/61+fCVLxuUVi8I10cpz+vDy/7+hUf5u0Krxd8Qi+kxebdnntW1KZeIxUDGV6LwrTwFfczORSkj+s6TpYjFMb4LfpcCFZYgwaC3BMxfrsaCCukqYZTT2fFh36f03/rjUwcfxzjtYCmssiKABuTxi2kidE+K2wtifUMWYGQrrKvyN60TNdHdFptWlNNUhOjQ4UNBa2kTTttISQoGdBJBSPtlL1BDXv6GSy+8krO+L3/D152NoS9WBOA1aSpsx+d7zH3RPYPzOcPipPI100UoyPFlflYhCGllNTrdRYuXAiQtwcqmlY+4RfHMa1Wi06n07VqH+r8xVX/rLPO4mMf+xh/8Ad/wKJFi4Bpaon/8Uk7z4sq5nJ8VxSlFD09PV3RMz9pZwqub2RRpMgUaSw+d3PiiSdyzTXXsGTJkq7JnyRJLrC+MXixO8tcKBi3roAwwbF4k3y7AiArIBLSZA3gTG6adAzo3grEFgYXUX3Xuzjt1JPY9M1/Z+JnT9O7bx+DSMKw4k5jLYESSFw3wyQz3RL8Ci67EnCmHVMPKuiwSmJi2jYhkjFJ6CoJA6tI0g4yCukEFTpDx8GpKwivejXVKy6HRYtBV0hSicpKLoTr6Y41aUbXnB+KjmkxfDhzhTxS9dDzRaVSYfHixezfvz/3QfwE8QzXokbx4dT5sm6LiTxjDCeeeCLveMc7OOGEE/jiF7/IM888ky8eRae7Vqvl2tTnZ/yC54XJn9NfZ6Ym973AgLzbi49++X1TxsfHueyyy7j22mtZtWoVP/3pT7s+77WWHwd0b+s2F3RXFwKKZF5fu5FfygmJMNPhXwFSub62NhBoHYJIEb/2G5y6YgWN//gPtn33HuKpKVQco2yKMhYVQygFodZonbW1zDogWDHdg0oJQSgVNk6JOzHWpgidNVSzhkha2hJEtUInCIn6FnD8Ky5j+OrXwnnZNnCJBCmRWbl9seH0fHyMYv2BX3n8gy1uU+aPLfKajgbteya8eTMwMJA3mfZh1iIlxE+ITqeT17DP28yYkVS01jIwMMAb3/hGLrzwQr7+9a/z1a9+NW9+3el08kYSvnM90NXUzk9WX1g1W9tVL5iegOi/gxcw//uGG27g2muv5YQTTmDnzp35QlCk4fikZlEI56NBp5c5mac8Ci9Ndwk5kEnoXnfuislaNFoIA+fEnLqa3g8tZ81v/D/s/9EPee7B+7B7R+iPDZVmgmwaZEcgA+lYf1kTaYTEYElwOzi5tqiWiqwihSQhodVJSGOLqWsmQgmLFzN03kUs/bVfh3PPh0qFKE0wJiP74UpQhM1Y8cp9u9SmRYbJrPAPwuchinY+OG6S1yJ+VSuumEcbnju1YMGC3Bm31nYVSXl/IU1TGo1Gbr/PB15rzubQB0HAySefzIc//GHe/OY387WvfY1vf/vb7N27N+9u6JnGxfMVtUlxz/Zi3Tt0JxC9sPumF6tXr+a8887jve99b1fdfrPZzLVksT7Ga3UfefP36FDQ07wrmffEyo0Or078nh6zbJumss0T0jRGKufqW6EQYeC2Yjv35QyuXMHgxRcy/ugj7H1iI/u3v0BzrI1uRwgS169KuO2clRYkxjVG8HazUJJQaKyQtFFEuk518SJqxw+zbM0ZcO7L4GXnwIIhkqBKB42WgQtLW0MSG7TUKDW9AFjm1/m8aOv6iWWMyXeF8g0TPIxxe354+/tom1q+wdyCBQty9qpfZX3UqFh8VWwbNJ/xzaTEz1wgwPmJS5cu5Y/+4rSJfgAAA3JJREFU6I9485vfzL333su6devYsGEDO3bsyO394kJS5I1Bd5CkKIx+7EEQsHjxYlatWsVFF13EK1/5SlavXp3fA5jeX977Nz7yVWws5zVJb2/vvNoW6S4zys6YMMU6EQt5t5NCYpHUIoV1JbVAGiWoMASL21xHhbBgCVw0zMDpZzOwdw/s2Uv76afZ+dRGxrZvg+YUNNsuemVijIVUGITWyKBGZASoKpUFw/SfvIIlp51G3+mnwvFLYOFCx8YNKiAk1ji1qG3qenFhIFB56WxscPXrysyaIJwNfkUbHBzkbW97G+Pj411Rl6LG8Emzs84665j4IUEQoJTiyiuv7NqSoDgxvKniTcKVK1cC8zcBD7aLbZH64s2Yk08+mXe84x1cffXV7Nixg+eee45nnnmGxx57jE2bNrFv374uU8d/zt/DYtLSR85WrVrF2WefzcqVK1m2bBnDw8Nd+RovrMWqxkajke/x6K/jn4+/ttdyc0EYG9vpwqiD3LBC3YafaLmfAKRJhFIh1psVQkBiQQtS4SpdsRnpMUlcTUhnCuIOxBGM7YO9ozAxAc0GJJ2sKimAnl4YGIKFx0H/kNukp1qFSuhsJd+t0Q/Gj9e4XXlJYnceqYitzLdOk8TOrJM+wH1wFLPXU1P/fzt3j5swEIVR9FHhggoK1sEG2DPLghILqMApwGaMlE9KE0XKOQXiX8Ligmc8cJk+pdoVseMCvvY/d3/jG6SNYZwdGnd/xsF6OyYaI/luvdmndmKi3d1qZ6Y+f8bbbq+q9+D6fr/X5XKp0+lUx+Ox+r6v6/U6Pb7rulqtVrVer2u73dZms5nGLcvlcnr+NthxG4/b4Xw+1+FwqL7vZ7OJ7W5i13V1u91qv9/XbreLr38xDPfXW/9nA8r2yyXdOBuyDPXcTXu8DjkOj9fl1/VVz7Uf7RMvxpPnYPv5o43F+3zV/P4zj2kyYXZMtGr6h5Kfvm7+l8Xwl9Z2wx/j4xMCgUAgEAgEAoFAIBAIBAKBQCAQCAQCgUAgEAgEAoFAIBAIBAKBQCAQCAQCgUAgEAgEAoFAIBAIBAKBQCAQCAQCgUAgEAgEAoFAIBAIBAKBQCAQCAQCgUAgEAgEAoFAIBAIBAKBQCAQCAQCgUAgEAgEAoFAIBAIBAKBQCAQCAQCgUAgEAgEAoFAIBAIBF/2DCoCJqE5XAAAAABJRU5ErkJggg==;" parent="1" vertex="1">
          <mxGeometry x="720" y="490" width="30" height="30" as="geometry" />
        </mxCell>
        <mxCell id="EPyueugh2iobcvaEf9Se-14" value="" style="shape=image;verticalLabelPosition=bottom;labelBackgroundColor=default;verticalAlign=top;aspect=fixed;imageAspect=0;image=data:image/png,iVBORw0KGgoAAAANSUhEUgAAAOEAAADhCAMAAAAJbSJIAAAAY1BMVEU2mNP///9AnNUplNEwltIgktEUj9Dl8PjT5POVwuRjqtpZpdiv0OqhyOfy9/tvr9zF3O/Z6fW21eynzOh5tN4AjM6MvuK82O3E3O9/t9/M4fHu9fr4+/1MoNbc6vV7td8Ah82QkKDTAAAJE0lEQVR4nO2c2YKjKhCGNSwas9hJJ2Y1Pe//lMcFCohoGLVPunrqv5iZMKh8UhTFZhT9ci3eXYBvFxHiFxHiFxHiFxHiFxHiFxHiFxHiFxHiFxHiFxHiFxHiFxHiFxHiFxHiFxHiFxHiFxHiFxHiFxHiFxHiFxHiFxHiFxHiFxHiFxHiFxHiFxHiFxHiFxHiFxHiFw5CPuHadxKyFQvMuZiA+EZCvoo/gxBFGoe+Co/eSFgVPBFBGeN4Mx7xjYQsjmMZkI9ncZyEZPTrfYT8UBHygAbG6oxsdEucTMjFGFVGxzZ1weVADk14qTLmbyNkq10yQnsRiXNV8F2f0qXUTOyryrgc3RAnEvJFPE5nIZLhHDdtmE0d7t9FKHcjCWMpX+W4Kkcr1tWPXZDXnZ+QFWMBY/m69ttQhtc+N76PdqaTCHk0GjCRh5d5cs4YE1FrzaOd6SRCeR1N+CE3AYSfm81Z/cjeQdg4uZH6lOeXeXJu/RjtTCcQtg1kpL4C6j+3G8HouG0CYUAt9KtkAVZqE47u8scTsnwCYBWQsu1LQstKd2/wpeI+jZDz0+2ulHh7f0O4XY/uDscTiv0UwLiQjEl5VPrjrc+8yqH0hvFhPaSZpPXBqLh5s4yPtucglC9b0XS9lbCJFWu9CJ/REvKVKsRh+UsJRdtwtmVA7IWU8KMuQSp4QL+NkzCSjzq05NFchP7e4p2EnD0OdSc8E+HV25zf21tw0Tx+JkL++fMIleYhvB1/O2FChERIhERIhDMQenv88hcRSt/U8oQ1wx9HeJfN6suTylkAfwZhnDGRP9yk62LC3My3Ez7yVYiMe9nWCxTOYqkUszTC6HsIb0fGK0XOH+YX/FOalav7Rc+rjZ827NF3EIbtIYmaTRZdzeNfjN5K6FskHb9Q2KMfV4dE+NciwhciwmER4SwiwhciwmH9m4Q/LmrzbfsqgqM2z1aA29yh99Tdl54dhmFbm2v5xr35TMNC0OQdtKLYuCr+ohLY6uniTTk34Ay7oNmzJl0917jXCMeJkikiQvwiQvwiQvz6Jwm5I9/pRvOf3bROip2HqRM/pmPvXGbdm3vVSbce4AsZuoQ8c7TiUjyHKSv1f9bBx1WuBHm5StJ5uJD55pQ+Hun584upSXt4GOQqVULJeZl7lPGFW8BSwO5Tsd6fOocxu4SdgP9+/ZLcm+MMIaiAfelAxE7OaEiUJ/umadakw5ywHjMxvZK4Z8y7qJjIzu7rZF02L4wti/3l/FwdHkLPDqxbZl1nbZ6FsVy70a0tgS7r3srDZWdL8Uddqn7CdQ/ho0tY36y2TnaKbvlpHKEz5mOmsAewDyCMv1iXkDPPPtRbhTgXYbyt/AXPT9mycwQslNA6s2KZMZipRXiTXULh3eacyvkIm8eyfL/sjN2CCXXBqzdlpepEi1BXt0Von8y4WbAHPh9hc+SEe8ZuA4T7UyVjXdqFMLtFaZO0CdVckiG0Gu5SSCm/tBHsRBBhcjVK90IT3uoCmpM3254JngHCZk32CBMNawXj+NoPfUbQIlRHlAyhhAXsdgTPYF9CGOH6aJ+eBRu6NskyhZv7R88DhC2R1E5eHXhUD9CZfIRtoiEsdbp2V0Kvb2dBhK7zMITNY4yhH/yzCy8JYbZIneIULbE21QvzEDbTiUDINA9MhYLZHo6TCetj/e77+1tCuGHa3lAZ6TJxH+MQNschgVBoI9V2XgUucxLqpngZW4fuc/T9M31fh1A30b2wCMGMTACnCbMZCKV2hquR7fCob9C+IqFjsY2b3BKeNGLV/wIhNEMIknl+f6Sn9bIw/eFC7UAp9X1tTyPtibwnQgaOepwvlQs4rK3eWPvjIVfOcxRhqo/SVKGAJjxC/2WKwGUzwmDevQodwsceVLlp15ea48R959kHCK9pmprusHCMdMmg07AJEzigXRpC7apunpccRGipep9AuL2m153puvo+QBEa01zb4mkjXXDmeFNFuP2TQn4g1Esbvtn+KYSuelcDAgnP0ilRYgUqjZlqXwrGG6/0AUXYWfmthD2dYSjh9qIA9d3rGNAxUyCEA8zpcf3/EaYD2/xCCNM/MEhSRlpa/V3TQoHQfCgjUh09WOkc7TD1Eh6OA8sdQXUIJ8W1kR455+Cm61AACM3p2bUi8/nSLqGevIANixbhtQAduLcOh74jNUAYRRB1q6CWKdd8zuuzrdAR2XVoTunfVWbTH1qzRKzuK7g1Aj6qaSXh6/GlvTRlegu+0JHU0EnvoR6fC21gaggh/CfwKzM1hGbhW7VDT0wTsSI9fRaHVdgIuDem4RCODGx6H45ppB6utmbQ02oqM7UIwQWpvyQsE5v1fV3408SoDc6yDlTiMCEMLPbNUby+z5FUtW0RPq3tQ8douRo93FhPjUvh+zg9QelLQtMl1JXYY6S1mdqEJhZuk4xrgF5Z59hMJYSPj6S9lfiCkOlA83Hk/a49FQ6h6+2kueNdTaNA+87DCIU9xc2cyBuqoJDe6fmXhKZ72610gGmmTWBQ6Fjp07eVpCl1vM2acF77orsM8jTnzJ70jhxCGF7HG8688xivRk8ey8xgU/1RIxbSITTzFm2SNPNryfkEEyuV6/n7ubY4dwidT8h4R/mvCD0f8zIWD61gd3QJ7fcireP7rrZixHzpE6FViT19xusx/vO+rrMVXkIBNZKOX61TPo179Xrhcsyc9zOhbSCjrLT6nbpPsKN4qKvCXYYxX5VQSaz7oZBtPbU4AyE3TcLrTwfWnsC1O4tGzm2Ms34itDblqflh7t6lOc0/jVBNjUWs1LUYSCg+0kYPqCux2j9uya5NXjutmanUdNP+BRbMLtrhqiQuoo12sfdrodYkhbocLuSX9o67JdP/dLXLMpUMIRKXl4/kllz9n5LyrAFrT2lSOBNSO1Dmz8yer2Gd29R3qRdXV8xac+3mMs/xf3TSzmE9THaK1k/4nXpalf4/9E/uVPhlIkL8IkL8IkL8IkL8IkL8IkL8IkL8IkL8IkL8IkL8IkL8IkL8IkL8IkL8IkL8IkL8IkL8IkL8IkL8IkL8IkL8IkL8IkL8IkL8IkL8IkL8IkL8IkL8IkL8+vWEfBEtfrnK/wAmlYkVVnSyvwAAAABJRU5ErkJggg==;" parent="1" vertex="1">
          <mxGeometry x="320" y="451" width="30" height="30" as="geometry" />
        </mxCell>
        <mxCell id="EPyueugh2iobcvaEf9Se-15" value="" style="shape=image;verticalLabelPosition=bottom;labelBackgroundColor=default;verticalAlign=top;aspect=fixed;imageAspect=0;image=data:image/png,iVBORw0KGgoAAAANSUhEUgAAATkAAAChCAMAAACLfThZAAAApVBMVEX///8AAAAbFxtJnNI/mNClyeYYFBiKiYoIAAgXEhf39/ehoKG6uboaFRp9fH0UDxTEw8QqJyovLC85k8k0MTR2dHbw8PAjHyMPCA9El8vCwcLU1NTa2tpjYWPs7OxcWly/2OunpqeYl5hta23MzMxOTE5oqNOHuNvM4O/x9/s+Oz6TkpPi4eLn8Pdfo9F7stgnjMba6POoyuSxsLFGREbF2+yVwN8wimQ4AAAHq0lEQVR4nO2ca3eqOhCGHXqKgBe0eAEVUVGr1qqtHv//TzuTSVC7y+7t7L2wq+/zRRITSF4mM5PY1dIN+Bqlf8CXuCndgq9RAgAAAAAAAAAAAAAAAAAAAAAAAAAAAAAAAAAAAAAAAAAAAAAAAIDr4vG56BF8J26PT6fr5938scChfDOiINiMssJTFPxb4Fi+F8vRPAii26UpbnfHQodzzTzezLf3z6Oni5pjEASZi3vebQsZ1jfgcRcpeJHentTzboPgxpRGu3lRQ7tyls/Px/v5TaDUi+4z8ZbbIDDrdAGre5Pl4nbD6gXzLCQsomCjvd1id1/cuL4HyxGLF2wWprgNIm2Cox0Su3d5umftsiyOvZ1W8bhbvNEHaB7Z1ALzX5RGgcnn5tHyjS7AsNhE0dy4OGN1ywAB9kMcOVZoF8fSycW/u1GRAyqc4WCw/lDDBUfZkVyNAr1Qt9FfG9V3oE7U/ljL5SYy24jnYKM+HoMf/R/kyuTUP9p2nkl3r1PiY/CTg8RnlOP1aRbsjUSJ5Y8+cfqUcsrqJDo8BTd/a0Dfhs8pV+LsRFboffDj9xCfVG7JeZ18Bj/axyk+qRxnc5FY221wHeebg15veplWef3pdPC6WWfa61+W1/1poz981azfM307+3oc1/feG08+KTf89T7eupPX4RgFEheiK8jmhpxTCakRb7zS5aShy2mt26V+qT+T2rLpVo1Nt+ZEVyQWN+uUGpZJ0TptIicMHaK60S6Ok5PyaZxMS5lyVbl1en5Z67rLFd1yjuibSA7njibMFkiPnJqlsElG3g/Jl7IVUiIjT8m2aTqmUGppJd1WFNq6mUtdsY7Y4WbDPbmWmNGUHFuU5Y9Qa8Iq9rLHdh2qloxyoltoO/Rgvqzod8KiT1+N12xclzodLpA+2SJS6NquKjd45qxiKOo5TSVd27EsPyHLoC3qgbgRz1epHjZVTcrKUo+4QinXoFpI5elwPa2T7+qXwi+nkT236WbKlRM20nEl5hdmpCuTT5PBuhGT6fiCbSSazYOCs7mDkojictqkmItDNXOLrDgRRZ2E6+qsnOVbPluBlk65pD4vpngyScVAqVLSytkrKdbVfWhmHNVw5bikXkGuchY3FNNeN1k6JVSPX57u+kD+6tWIn7TRjQrefA2VGLRXl321MpIws6q1o6RTUy2LYDRrDB701Vg1j7XL8ppso36Lr1IlsM3mq/xcEorohoNPagHnK+cfTFWHzVR1avonS+OOr9frVjxd0cu1T0YezVoVRQd22+paTUWU82eqbqwunRd79D1X1TgyyKJW5ruW+9jOhXdXFtj5nXLnBVnhgsfrPEzPN89JWhY6mZvP3wrafx2xOdsZm0FUziZYKvlidJ5WTr97T0TMjGQwLseHlrQaGOVCbWkTOnl7oe2om+YqZ96TvnuNQ0jdObcaXH594ia6hh1Ey5ewSqksvlQWq8lORArWRCunPY/Fa9PVk6l0VUQUeUXXrLkiCV+69obYTn6EuDCqlc8es+XSuGoYs5avx3wbFR1XFTq28hKkmO1uJg7efCVejY3gUrmWUu6OL9Y1HYR9/1K5Gmnjbbr0YimtSRnju8rFHI5LnO3QiVqechwjruGUZEpGO7K80uqjynkSUx1yV1rsk839L+VSpRxdKsfkjDmKRn9Sgq/ilUknuRISzyLpbIQ1yVMulbr60ASVX5Wb+fTikJzT4vYHlONFPmGbo/dc/310Lb9U92YSKMjM3iQCyppUTMxTTuKuhMBBnnL8MsaXD9DlrnveQzTtHOW4wV5p+joTecnoKhydRqsz3F9kHcMsQ8lRThuamjqbU45yfXK7F3f3yFbp850rKbOusbLYes51+a5sqhyHJ++M9ukaDpnMFlzPf+3pVFcq49DsDnKU04YmE5yFOcqVDiGl54dwXhzLR5ilx/uTcuZpirqjXlSVXPedQXvml8NCcboP02FnqkKD7RiVbKoMprJRlTnkKOfpNHDf6ev9rPJfL5RjaWU3p/BibXKcLdZMsjJ0/JNyYZaxNYyaXd+JS28TRYX/5eaaXAlgEiDVAVLL0fmdBI0a6ZOg135OLE2a2bU85dRuw/EnA88bTELH0v6N17/bVRZWdeigIwSb2Yzu+rqH7UiOzfZPM62wN813eZvig+v+dARijo+8FtWymlBPOE+5gWRzck7SrUnu8otyLISvXwpnGTXS55ac57h0t3J4hzEm2arwhmHdIrpLZg4bZNPLuvrUTdJkRZdr/oJt8buIiTp99H1fnT+aKo6Djm+7vHNP1lkFo5VT+wZSzp/TQG7kUKuTqKq9SlQU54Siz/P2XddXBh3OdF2bb62eVWF1JPrGfGNvJkegJLn4qas6ElXnprnD3l7BYXqnWk9Wq0M6Pp9me/v2qtuMJ1lG1qgwE2MO6loSjs5k1m2mVfM1L6qe+qxc3rtfnt11V+XByjg1Ztq+a84m/BYG0qe0lxs32q3uoTz4pWtr1q68OL0/M7od/YnJXz19Urki+AJ1suhTP3EBg6f2or9ZeOBNqnRx6AY+wyEu9AD3GwPdAAAAAAAAAAAAAAAAAAAAAAAAAAAAAAAAAAAAAAAAAAAAAAAAAAAAAAAAAAAAAAAZ/wE8cJh81otY5QAAAABJRU5ErkJggg==;clipPath=inset(28.57% 14.33% 33.12% 16.67%);" parent="1" vertex="1">
          <mxGeometry x="690" y="200" width="38.88" height="11.081739130434784" as="geometry" />
        </mxCell>
        <mxCell id="EPyueugh2iobcvaEf9Se-18" value="" style="shape=image;verticalLabelPosition=bottom;labelBackgroundColor=default;verticalAlign=top;aspect=fixed;imageAspect=0;image=data:image/png,iVBORw0KGgoAAAANSUhEUgAAAQ0AAAC8CAMAAABVLQteAAAB11BMVEX///9ZtNmztLWVlZXCw8SqqqoAAACWlpays7SmpqavsLCx2+x4eHhQsdi3uLmSkpLj4+P19fa9vr/V7PWfn5///+L/+vT7+/tAAAAdAADp6el+fn7///nq///gyqb//9WHh4f//vLZrYQ9dJq4kWzLqIGcyPjy+fza2toAR3Xo9v8AAA/Nzc1zPAC77fIAABdULQAWOmSIwtGxiEuGYjCYzuaFxuJLDQD/79kAHmfbp3Ruo9ilvOAAADPg//9tvN0AACNeGQAAACaz2/+u2OvX7PUSAAAvAAAAAEQiAABOAADo4KyTzOV6wd/w5tzLvbnbybFlWU9BT1WWr8r/3LIAPnVXaH2EcFf43cVvg6FahK0ANlmyvMlxVT4ADEKvm44AA1gAJk5Leq92q9I4CwDdw46se1lQGwBYQSQ1TGO5iVzGs6IeMERFMSAPITd+ZVAaWpAxHwiZqbN/YT0wTXOqpn2AUhSZv7ZkXmlLNBFyTip1dYJTYmoADzmgaRF1h3VMbnYAOH55jLAZHQBxTR1eJwAAJ2EAK1kAHSShcD56OACYaSu1ll2Ns9xxaWH/7Mt9kaBCgr6LTACYe0a0pJXG1udopLze0L8AAGGFVy25mn0yLSgoKTSAb3nfAAASHklEQVR4nO2d+WMTZRrHwyRztn0nmUwbSENNgJoYUluFYtzVbYGmHNKCcioVxFXBVllAVlcOd9d18eBcFbvI/rH7Pu871zuZTGbSYyZtvj9Amsz1fvJc7zGZRKKnnnrqqaeeulHlbLaPKJutRn0tkaqcnZnaMuDU1LG+zYmk2jeHSWxxCb8zNdnIRX1x66tcdt+WJhI2kam+ctRXuH7KZeearYIFsmVys3hMdsofhcFjZjP4S3VfABaUR1/U17rmmmnjIwyPfRs7fJSDGoZpHtmor3gNlW2dSFrxmIz6mtdM2ZAoNjSOvrCGQXG4g0eOKJomrJ46g4FxzFlNx6X8sbkp/N7U1NxkX7aLkXQKA6yDHKAxMwVdGetdrLmZLq3Rsh3DwA0/ligDCo9PBqa6MetUO2cBjZ7z6dV0IY8gxXjnrLqMx+QawgAek91UtK4kaATDsaV7wmluqqMWhiviu6aLN9OBaQzMNbzTSMsduqRo7SCfGN01vxGy5n2ORd3QQAodQge2zJhRsToTPBt1hXWUQ7LAtWfDuXufT7Hh2nEmskYGVsioMTDVFA8bkwF5xD+U5sKxGJjxKh3KfcEi6kDDY+c4KVStMbCvZd3QOBaIR8zLsLkQWcE58JfLu48UxEBinljKwVMCM2eQRrJcy7gOlsseaxdBBmLdZwnuKE4nydQkjldVUam4R3TaptypOPtKwIzC9ssrSOI4PplMqqqecntMOeubcmOdZgN1UQa29DlsIK8pGAahATzUZo9p+DpMfI0jFygvOp0kVyMsCA1R4UUVgEgV13F9ImqMjaPRnsbAlKNIyFUkysKgwSFFJkCSmttjGpOteKxrC8Oo7dgwO9uKnYTjGBogRSdAdLfHtDCQ+KaVNkF0gJktwZlE4mwaqkmD4yQeAyE5hgXimXKNMfYYyr//yo5oppFtGC4aYCCyCBFE1/Js0q16DIOsbxuD65gvDWe5lU8Z0VNiaUg4dphAdAKEd3lMU8qNbW/Fb06e6XGaToL4IktD7i/qEjKB8HrSK8dUmYga26wy5+cnNo20pJgs+vvdNLAACH0XSbKOcTTnGEdEjWvgyAWiYToJUpK45cMsDX64v58CUSyPkSGkNuUYxzBITAuwfQFoZBBlIYmk4S4aSlItUiDDRVlxhBCPHJPro8vrBuJKI0DcIDSQpFMWxaSbRlK0gagWECPpunJMjhTtcQ2jfhmWoSEXiTtgAmITjSQAkUULiBlDjKTr6sdAyo1n/VUNEjeAhkJYyAinDE8aSVVByAbCcwyQpMLmmL440qj6VxsuGsM64pDYmgaEFsSbQJK8mXVx0vXKMTFTeV+7BcMOGvywmpS5djQ4JqiKDiBeOSZOar/+j7EN3OBgNFRnUBVlw2Usj4nl6qeyv5OsiIYRVIumhVAgkmLmmGhb7qFqoKXkndPAnyCJN4AULSA06TaPlUWrQDBWSAOCKt5m2ChUJQIEGUmXi5HHVINNFK6YBvRrrBhi9e2ox8hNo8sRKegUyirQIBuJNhDqMYjXdV6W3UNDkSgXdI3BKtEgQZVPFp19O5RCCo+BoHTUHhMgm6w2jWRSwkGVAiF9uxSWhoHIMh+txwRfM7yqNMAgJCOo4qpWSxEgHABB0eWYEMuaVpsGBAwVYkgxqeI6lfCgHsNrEXlMYD9ZCxqcjGNqUqXDpzqvWUCwx9Qi8JgwqzXWhAYch+dx7w56LrhwNzwGQqqy7jzCrAxdIxoYBg8WQYEkDZdBmEd6nWGEW8izJjR0ntIAArgwTeKj8BHRCHUT31rQwOHTpoERyBBDxGhoBF/Is2a2IbM0sGRdj4ZGuMWQa0GD+AlLwwwj604j3Or6oDTU4DR43ouGEgmNcI4SkAb00mHkMxAN5EkjGtsIeRtKQBoUghyEhuZNIxrbCLuG2pOG2WwyAsosYWhLA6XiRMNv8iQYDU5WnO0WeamJBk6ZLWigVJxohL1FyYuG2wpEXVZcRBQegHjQ0FrRiCRuhL31wkVDddEwG6qKuu62EYVvoiFpqVjZRsiU4qKh6kyQkBS+CN0Mg4gKRmIt8mlGJnEo1ZJGNLaxEhoiz3z3Si2TyKVTis4g0WVeYokoOi1HJORuftS2UV0BDediQEnh7NGqTEVTaGfUUJOR8FCOSFrcaKzENpwskHusO5OvIbKcxwwkmAivOHeRtSbX2Ag0JEnznhjKYSR0Ks2KrZiIuSNqDhTdHDcsFr4DmLl8JcWT6WdKhLqNDSOlKbGxjZXUG9TgA80oYySarjJGYtGAeQMpHjRWUosCC9fMR97fSmqSGVxV3I3HgVVzEImBp6ygnyIpEjvpkakgHlcgqYofk1wlJeEULBpt5hUHkehto+M+rDuNZGpIgcIKvntd1ir51tND2G9qmiLLFhFOcxiJpERHo9PxDa2ZheSozMlUAKqlMy2ZZHB0RTYSRbKNBKbbumrsK8E4Q6bGKUzRbSPx9xycgjUyj+R2G02Lhka4323yus87U5PMsoqh4WDCa7XWaTiTrkG7ZdNtkCOEdMeYuS3rrgyDhig6SnInkqIupdIt03Eed3Bkiwh1myjmU0L9uISbBsPCGAmEOVQdSlAvJqpfgMWhhLORIC4CGqF+eISlkU9J7CAGcycXhZJ0QcHRFbcUkHi7Ti5dS0kWknWnEco4nDTSmskCmQbCu8dFJYOJDcWoNHBzFa1VzslBKCH5Zv1phDEOO6ekNctHeHVYaUHDshOAIgIUq8ogSGBNTwszgRTM8etOI0xasesNmwUsVjIQyOZYMELNY14ISTAaqPAuYRvgUthMvC6thTutqYIvZ7FoGKsdOZ2uZGNp8EUyCohQExS6uktDSFHcSGQe1SpxWCJZDlyCWTTI8L8imnfrSCwNeiMX/kDVWSrOHgmG4jIUjETHAdbbTNZPgQcELRocTBfQReMirjFYGnI/K0qF51DKQ5iJpLBMeGIm0TEJ2nlz0EA6uQdHgrt1XLah4FqrWBweHmaZDBchaiJN82KiIcnpPZBzJP/u8Fri6IDGsAoUvGjg/yB/8DCrpAIX4/4l0sMVRWIomgcVd0SR9fXPKSFwOD3FaLo3DVJo0XuXkEIK82JRJIhojQq9F6CieFGxI8r61xsWjjB3ZASmwdH5SMxBN5opi6JdqKsUi8xLzUyi6KdYCnJPRsc0YKmb0V6NxgUd6jFzYJBSIUPq9jhHpDSClGHODBuOBq7InTR4Y1hYQ4pOK3eHMBYpehqJartf+urcNmRvGvawMCfRXh7dNaJVcC71+btLxzRgqZs/DeND3H8FY4kHDfJTMqtPg/Rcg9BIGaviohkl9pLn05VWRIN247uTBvmB0AFvGT8aEpKG3NU0EuSZbF4yfuUrFA3eWB/bxTT8Fc42+M1JQ/ekgTY8DRTYNiRN69EwaUgo1QmNqO5P6UghbCO1GWhIAeOGtilo2LYh+tHQUh3S0DYgDZTq0bB/xSjVo2HT0DYLDSkADS7VMQ1lw9EQtY5owCSD+ckGoiF3QsOhDUVDdze/BQ2y2tq9UHKj0dCbmu9Nw2vqjcy8wTZdREP1oyE2N5+96UBphkBBcOZsmyzzUhwm7duK3K2j+9GQW9LQYCWk51wskmwOZBY2iuUbHYiuM+f1ljR0D9fwImAZhA0CW0Qqyhn6DmT/vr0nDXZYWGbXCrcwiDitaAmrjPnsAy8aIusa3iCci1nANVqtduoOGc/F4OChBywNnoyRK0or19DcBhHZQo1VVK5Cf+lekUWWBuddPzSDgFWSXRMr28p8CoLC0PBc0EQ9gwWR7q5Y2V7OJ2SYNHxDJU+XEqe73zU8VXGsNCc0NLdB2KFSlrsueYZWzeJBfr7aESF43hkruzN5hlbGvBNBp914ZiEoGITW1ckztIznqGAasqIwBtE99fUqKleDh6joqm7nDLSBkmdoYXfhdNEBIuoLilhppMukioj6QmKiTRUre+qpp5566qmnnnrqqaeeeuqpp7XU/Eofb5WuVCrp8I8oLRx/GmbrClGb9SrzqOq/QdvT7BdW9FziE2/PCljvnAy74ynhdAiEg4fgLML0GV+Ee4Q/hr0M90UJOzvfu7BLEM6gFDorvOG73bl3m96qv/ZeiBMNbj2/kEodf1+44Pf4z9Fx9pstXfT4kS0/7flg74XOnz07KlyiOw/5b7frvx2fgmpw60vECR4IH4bYq7711XBnObRzRPhzqF0cenzozUBPai2Mvd7pKQyZNM599Mr24Ht9LISjsUN4ODjxEjnBJ8QzhfHJxOBleur6BJx6ZLqvflYQXsRvLF0RhE8X7L0XWZCFpc8F4bOTZXrg7In34S/8+sQRcmBsxfO/4i2uki1eOAIeuuvwdjjoZ0bYWf4LfAyvhsbeSyxdF665aNQv34SLHbp4XRDebVj7gC48xaYKV7l8FoeyT29US1+Q93eWS3uvJU58Ltz8q/CQXueYt7+VvrywPbFIvW2J3JZ+Hf8x+BpDQ/hq7ED/37IQJD7t7//aJlC6dcAZ1PDZ8edvCwTuDuG2cAe2xtHhRPGju/jQ+OK/2X1nePgKvJd4YRuhIfwdNrtODzoiXIID7CwDjQ93CXcemecyaYzMAp/6LbzTo9m7T8k752+gi0emb+DcSGiMCFf7+/uvjP+pnvxC+IeqnkyU9v5zVHjn0bePZyncU+QMzXoMIXRk1o5no3ClLhqz/7pJr4QcpP6dcNDYuD5xycl4l/Ae/rzwO2nsDoHkqvq/iS/tNzxlHlLk4NHDDZvGBWjS40P3qvDv9/iDwifwFQ6N/eBEjWkA4/lbu+GoPwpgPyPbbuLz/XQ4S677Ifn3xUThFwHeGIIz/YF6SmnvNNkhcV8gUfVBi5i/CC0rfWcZzrlDYIhuGrTNpb30WDss46hPnHfQmJ84TDyu8PN0FraiqeoBfF1D+5m4sWf3yzYNerBvpl82m4S/omtlTMMwa5PG1dv92BwOQKsebyPuknh2oC8xeIR8z6fIV2DQsBKLRcPIvCNkq9LRe55lSX3iXpm0z3Db0tib8H24PYWG8fnLtEmnrLDO2sZb24z3ib2azEbb0XjReqtwX3g5YV7t0NiFPzE0aGxo0EbRxi0K+5ppJM5t2/2k4aZBr7N09HTV3LZZHwuGTieMwxMsbhr03POvmVtboe3WXYcxvyX8x6TxEGi84UFj+eLnJKA6aBy0aAx9aZ7gMNBgAFJP2UPtZdTcDoj/TBxqUThmniwBMf/8DYbGmwbZB7DZHsGzCik9G39CfvDkCv18xIDWgsbW75FCZGWVT5w5JQCNHcL55EKl8svuFjTGvzJOUPagUYV64G6DHHMnR7bjMYhzl4Uz6tf0ykcNSyv9+jWJ5U00Hs/uxGHrtBcMHCWMb5madf3yve0MDZrcLRpjr7sj8Yhw2s7+9a3GWfZAC71oDB6iDvuNNw3s8faX5kmDBnnrW6P6fby///ZT+2REBRKQmmgk7h/O7mACkq1FYdJoyNHXtydKP5p1beEnGlZHBSeNwmLTYUrPHLkKe+dBSgWgumh8AK8f08haOurtKUwrvWmUJqbxNQ5edsSrEbMRDA1sqb950RgRTv4y7llsDE6cN2Mr5BbMvZDBKsOfZxr5/NIRhga2nfEn+Xx++exB6xD1CVzmwHuPshC+rj7FLycIB4YGjo8nM/ny4NG7TzOZ5Vst4kaisBdXVPn8/MWTrWjgi4F0MiqcX8BnXbpdhde/4Zd0BQjJKb8u5DOZ+S/gwCPCK41M3kkDO//EtYSXHF8Frkfql4XdZmQq3SKvvrr1vZNGYv47GrtsGon5s0Y8Axs/8REJkcSCGBqJc1CNvmpE7Z1LkDteEBgaJJ0Y1SNcwtBPTNdm8NBpQqPwjDj1EjmTAHVQiV7U+JOqlWFBu79NkNIFZ4hy6ctpKz8tCi2KjRO83V07vjB0XLEiEw7+isJV8bvYUOZ5O3Es0xDn1DyE1gXDyI5bL829lmVykrqiSFXyn/IUf4Yhl/gF8nHV2IwGoHkcHskgRWFpwXmWknnaOtktUcJnkuAM9Vt3b8BlkwJ3mZwULtIc6FiG8xWO37DCW30rk7k3mO4b/Ubs9oG6cyMtio2Nof1GFBicuBmIxrMDYYbcuk1jpJti9o7a6sTsCsa24i/osYpq/xXhTPsh0aU7j2YvBRqQ6VrNn33+/Pn//MdLDY3+8PxM5+N8PfXUU0899dRTTx3q/7HRwX5eVg9LAAAAAElFTkSuQmCC;" parent="1" vertex="1">
          <mxGeometry x="684.43" y="420" width="35.57" height="24.86" as="geometry" />
        </mxCell>
        <mxCell id="EPyueugh2iobcvaEf9Se-27" value="" style="endArrow=classic;startArrow=none;html=1;rounded=0;exitX=1;exitY=0.5;exitDx=0;exitDy=0;" parent="1" edge="1">
          <mxGeometry width="50" height="50" relative="1" as="geometry">
            <mxPoint x="680" y="290" as="sourcePoint" />
            <mxPoint x="680" y="290" as="targetPoint" />
          </mxGeometry>
        </mxCell>
        <mxCell id="pE5c4ry1s6cFORCVuCyy-5" value="SonarQube (v 7.6) (SENHA)" style="whiteSpace=wrap;html=1;aspect=fixed;fillColor=#f8cecc;strokeColor=#b85450;" vertex="1" parent="1">
          <mxGeometry x="680" y="232" width="120" height="120" as="geometry" />
        </mxCell>
        <mxCell id="pE5c4ry1s6cFORCVuCyy-7" value="&lt;font style=&quot;font-size: 6px;&quot;&gt;&lt;div style=&quot;&quot;&gt;HOSTNAME: AMCIDINTSNRQ01A&lt;/div&gt;&lt;div style=&quot;&quot;&gt;IP Produccion: 10.99.226.16&lt;/div&gt;&lt;div style=&quot;&quot;&gt;IP Gestion: 10.99.240.21&lt;/div&gt;&lt;/font&gt;" style="rounded=0;whiteSpace=wrap;html=1;" vertex="1" parent="1">
          <mxGeometry x="680" y="232" width="100" height="38" as="geometry" />
        </mxCell>
        <mxCell id="pE5c4ry1s6cFORCVuCyy-14" value="&#xa;&lt;span style=&quot;color: rgb(0, 0, 0); font-family: Helvetica; font-size: 6px; font-style: normal; font-variant-ligatures: normal; font-variant-caps: normal; font-weight: 400; letter-spacing: normal; orphans: 2; text-align: center; text-indent: 0px; text-transform: none; widows: 2; word-spacing: 0px; -webkit-text-stroke-width: 0px; background-color: rgb(248, 249, 250); text-decoration-thickness: initial; text-decoration-style: initial; text-decoration-color: initial; float: none; display: inline !important;&quot;&gt;HOSTNAME: AMCIDINTESRC01A&lt;/span&gt;&lt;br style=&quot;color: rgb(0, 0, 0); font-family: Helvetica; font-size: 6px; font-style: normal; font-variant-ligatures: normal; font-variant-caps: normal; font-weight: 400; letter-spacing: normal; orphans: 2; text-align: center; text-indent: 0px; text-transform: none; widows: 2; word-spacing: 0px; -webkit-text-stroke-width: 0px; background-color: rgb(248, 249, 250); text-decoration-thickness: initial; text-decoration-style: initial; text-decoration-color: initial;&quot;&gt;&lt;span style=&quot;color: rgb(0, 0, 0); font-family: Helvetica; font-size: 6px; font-style: normal; font-variant-ligatures: normal; font-variant-caps: normal; font-weight: 400; letter-spacing: normal; orphans: 2; text-align: center; text-indent: 0px; text-transform: none; widows: 2; word-spacing: 0px; -webkit-text-stroke-width: 0px; background-color: rgb(248, 249, 250); text-decoration-thickness: initial; text-decoration-style: initial; text-decoration-color: initial; float: none; display: inline !important;&quot;&gt;IP Produccion: 10.99.226.24&lt;/span&gt;&lt;br style=&quot;color: rgb(0, 0, 0); font-family: Helvetica; font-size: 6px; font-style: normal; font-variant-ligatures: normal; font-variant-caps: normal; font-weight: 400; letter-spacing: normal; orphans: 2; text-align: center; text-indent: 0px; text-transform: none; widows: 2; word-spacing: 0px; -webkit-text-stroke-width: 0px; background-color: rgb(248, 249, 250); text-decoration-thickness: initial; text-decoration-style: initial; text-decoration-color: initial;&quot;&gt;&lt;span style=&quot;color: rgb(0, 0, 0); font-family: Helvetica; font-size: 6px; font-style: normal; font-variant-ligatures: normal; font-variant-caps: normal; font-weight: 400; letter-spacing: normal; orphans: 2; text-align: center; text-indent: 0px; text-transform: none; widows: 2; word-spacing: 0px; -webkit-text-stroke-width: 0px; background-color: rgb(248, 249, 250); text-decoration-thickness: initial; text-decoration-style: initial; text-decoration-color: initial; float: none; display: inline !important;&quot;&gt;IP Gestion: 10.99.247.203&lt;/span&gt;&#xa;&#xa;" style="rounded=0;whiteSpace=wrap;html=1;fontSize=6;" vertex="1" parent="1">
          <mxGeometry x="680" y="100" width="100" height="40" as="geometry" />
        </mxCell>
        <mxCell id="pE5c4ry1s6cFORCVuCyy-15" value="" style="shape=image;verticalLabelPosition=bottom;labelBackgroundColor=default;verticalAlign=top;aspect=fixed;imageAspect=0;image=data:image/png,iVBORw0KGgoAAAANSUhEUgAAATkAAAChCAMAAACLfThZAAAApVBMVEX///8AAAAbFxtJnNI/mNClyeYYFBiKiYoIAAgXEhf39/ehoKG6uboaFRp9fH0UDxTEw8QqJyovLC85k8k0MTR2dHbw8PAjHyMPCA9El8vCwcLU1NTa2tpjYWPs7OxcWly/2OunpqeYl5hta23MzMxOTE5oqNOHuNvM4O/x9/s+Oz6TkpPi4eLn8Pdfo9F7stgnjMba6POoyuSxsLFGREbF2+yVwN8wimQ4AAAHq0lEQVR4nO2ca3eqOhCGHXqKgBe0eAEVUVGr1qqtHv//TzuTSVC7y+7t7L2wq+/zRRITSF4mM5PY1dIN+Bqlf8CXuCndgq9RAgAAAAAAAAAAAAAAAAAAAAAAAAAAAAAAAAAAAAAAAAAAAAAAAIDr4vG56BF8J26PT6fr5938scChfDOiINiMssJTFPxb4Fi+F8vRPAii26UpbnfHQodzzTzezLf3z6Oni5pjEASZi3vebQsZ1jfgcRcpeJHentTzboPgxpRGu3lRQ7tyls/Px/v5TaDUi+4z8ZbbIDDrdAGre5Pl4nbD6gXzLCQsomCjvd1id1/cuL4HyxGLF2wWprgNIm2Cox0Su3d5umftsiyOvZ1W8bhbvNEHaB7Z1ALzX5RGgcnn5tHyjS7AsNhE0dy4OGN1ywAB9kMcOVZoF8fSycW/u1GRAyqc4WCw/lDDBUfZkVyNAr1Qt9FfG9V3oE7U/ljL5SYy24jnYKM+HoMf/R/kyuTUP9p2nkl3r1PiY/CTg8RnlOP1aRbsjUSJ5Y8+cfqUcsrqJDo8BTd/a0Dfhs8pV+LsRFboffDj9xCfVG7JeZ18Bj/axyk+qRxnc5FY221wHeebg15veplWef3pdPC6WWfa61+W1/1poz981azfM307+3oc1/feG08+KTf89T7eupPX4RgFEheiK8jmhpxTCakRb7zS5aShy2mt26V+qT+T2rLpVo1Nt+ZEVyQWN+uUGpZJ0TptIicMHaK60S6Ok5PyaZxMS5lyVbl1en5Z67rLFd1yjuibSA7njibMFkiPnJqlsElG3g/Jl7IVUiIjT8m2aTqmUGppJd1WFNq6mUtdsY7Y4WbDPbmWmNGUHFuU5Y9Qa8Iq9rLHdh2qloxyoltoO/Rgvqzod8KiT1+N12xclzodLpA+2SJS6NquKjd45qxiKOo5TSVd27EsPyHLoC3qgbgRz1epHjZVTcrKUo+4QinXoFpI5elwPa2T7+qXwi+nkT236WbKlRM20nEl5hdmpCuTT5PBuhGT6fiCbSSazYOCs7mDkojictqkmItDNXOLrDgRRZ2E6+qsnOVbPluBlk65pD4vpngyScVAqVLSytkrKdbVfWhmHNVw5bikXkGuchY3FNNeN1k6JVSPX57u+kD+6tWIn7TRjQrefA2VGLRXl321MpIws6q1o6RTUy2LYDRrDB701Vg1j7XL8ppso36Lr1IlsM3mq/xcEorohoNPagHnK+cfTFWHzVR1avonS+OOr9frVjxd0cu1T0YezVoVRQd22+paTUWU82eqbqwunRd79D1X1TgyyKJW5ruW+9jOhXdXFtj5nXLnBVnhgsfrPEzPN89JWhY6mZvP3wrafx2xOdsZm0FUziZYKvlidJ5WTr97T0TMjGQwLseHlrQaGOVCbWkTOnl7oe2om+YqZ96TvnuNQ0jdObcaXH594ia6hh1Ey5ewSqksvlQWq8lORArWRCunPY/Fa9PVk6l0VUQUeUXXrLkiCV+69obYTn6EuDCqlc8es+XSuGoYs5avx3wbFR1XFTq28hKkmO1uJg7efCVejY3gUrmWUu6OL9Y1HYR9/1K5Gmnjbbr0YimtSRnju8rFHI5LnO3QiVqechwjruGUZEpGO7K80uqjynkSUx1yV1rsk839L+VSpRxdKsfkjDmKRn9Sgq/ilUknuRISzyLpbIQ1yVMulbr60ASVX5Wb+fTikJzT4vYHlONFPmGbo/dc/310Lb9U92YSKMjM3iQCyppUTMxTTuKuhMBBnnL8MsaXD9DlrnveQzTtHOW4wV5p+joTecnoKhydRqsz3F9kHcMsQ8lRThuamjqbU45yfXK7F3f3yFbp850rKbOusbLYes51+a5sqhyHJ++M9ukaDpnMFlzPf+3pVFcq49DsDnKU04YmE5yFOcqVDiGl54dwXhzLR5ilx/uTcuZpirqjXlSVXPedQXvml8NCcboP02FnqkKD7RiVbKoMprJRlTnkKOfpNHDf6ev9rPJfL5RjaWU3p/BibXKcLdZMsjJ0/JNyYZaxNYyaXd+JS28TRYX/5eaaXAlgEiDVAVLL0fmdBI0a6ZOg135OLE2a2bU85dRuw/EnA88bTELH0v6N17/bVRZWdeigIwSb2Yzu+rqH7UiOzfZPM62wN813eZvig+v+dARijo+8FtWymlBPOE+5gWRzck7SrUnu8otyLISvXwpnGTXS55ac57h0t3J4hzEm2arwhmHdIrpLZg4bZNPLuvrUTdJkRZdr/oJt8buIiTp99H1fnT+aKo6Djm+7vHNP1lkFo5VT+wZSzp/TQG7kUKuTqKq9SlQU54Siz/P2XddXBh3OdF2bb62eVWF1JPrGfGNvJkegJLn4qas6ElXnprnD3l7BYXqnWk9Wq0M6Pp9me/v2qtuMJ1lG1qgwE2MO6loSjs5k1m2mVfM1L6qe+qxc3rtfnt11V+XByjg1Ztq+a84m/BYG0qe0lxs32q3uoTz4pWtr1q68OL0/M7od/YnJXz19Urki+AJ1suhTP3EBg6f2or9ZeOBNqnRx6AY+wyEu9AD3GwPdAAAAAAAAAAAAAAAAAAAAAAAAAAAAAAAAAAAAAAAAAAAAAAAAAAAAAAAAAAAAAAAZ/wE8cJh81otY5QAAAABJRU5ErkJggg==;clipPath=inset(28.57% 14.33% 33.12% 16.67%);" vertex="1" parent="1">
          <mxGeometry x="690" y="330" width="38.88" height="11.081739130434784" as="geometry" />
        </mxCell>
        <mxCell id="pE5c4ry1s6cFORCVuCyy-26" style="edgeStyle=orthogonalEdgeStyle;rounded=0;orthogonalLoop=1;jettySize=auto;html=1;exitX=1;exitY=0.5;exitDx=0;exitDy=0;entryX=0;entryY=0.592;entryDx=0;entryDy=0;entryPerimeter=0;fontSize=6;" edge="1" parent="1" target="pE5c4ry1s6cFORCVuCyy-4">
          <mxGeometry relative="1" as="geometry">
            <mxPoint x="510" y="7.999999999999773" as="sourcePoint" />
          </mxGeometry>
        </mxCell>
        <mxCell id="pE5c4ry1s6cFORCVuCyy-27" style="edgeStyle=orthogonalEdgeStyle;rounded=0;orthogonalLoop=1;jettySize=auto;html=1;exitX=0.5;exitY=1;exitDx=0;exitDy=0;fontSize=6;" edge="1" parent="1" source="pE5c4ry1s6cFORCVuCyy-14" target="pE5c4ry1s6cFORCVuCyy-14">
          <mxGeometry relative="1" as="geometry" />
        </mxCell>
        <mxCell id="pE5c4ry1s6cFORCVuCyy-29" value="HOSTNAME:tqavlstrosei01 &#xa;IP Produccion: 10.231.16.61 &#xa;IP Gestion: 10.59.19.56" style="rounded=0;whiteSpace=wrap;html=1;fontSize=6;" vertex="1" parent="1">
          <mxGeometry x="364.01" y="-30.22" width="120" height="30" as="geometry" />
        </mxCell>
        <mxCell id="pE5c4ry1s6cFORCVuCyy-33" value="GitLab&lt;br&gt;Server" style="rounded=0;whiteSpace=wrap;html=1;labelBackgroundColor=none;fontSize=13;fillColor=#f5f5f5;fontColor=#333333;strokeColor=#666666;" vertex="1" parent="1">
          <mxGeometry x="193.5" y="-50" width="126.5" height="110" as="geometry" />
        </mxCell>
        <mxCell id="pE5c4ry1s6cFORCVuCyy-34" value="" style="endArrow=none;startArrow=classic;html=1;rounded=0;exitX=1;exitY=0.5;exitDx=0;exitDy=0;" edge="1" parent="1">
          <mxGeometry width="50" height="50" relative="1" as="geometry">
            <mxPoint x="500" y="270.5" as="sourcePoint" />
            <mxPoint x="600" y="284.42857142857133" as="targetPoint" />
          </mxGeometry>
        </mxCell>
        <mxCell id="pE5c4ry1s6cFORCVuCyy-36" value="Repositorio NEXUS&lt;br&gt;(SENHA)" style="rounded=0;whiteSpace=wrap;html=1;labelBackgroundColor=none;fontSize=13;" vertex="1" parent="1">
          <mxGeometry x="620" y="-310" width="170" height="160" as="geometry" />
        </mxCell>
        <mxCell id="pE5c4ry1s6cFORCVuCyy-37" value="HOSTNAME:AMCIDINTNEXU01A &#xa;IP Produccion: 10.99.226.211&#xa;IP Gestion: 10.99.247.175" style="rounded=0;whiteSpace=wrap;html=1;fontSize=6;" vertex="1" parent="1">
          <mxGeometry x="626.31" y="-300" width="120" height="30" as="geometry" />
        </mxCell>
        <mxCell id="pE5c4ry1s6cFORCVuCyy-38" value="" style="rounded=0;whiteSpace=wrap;html=1;fontSize=6;" vertex="1" parent="1">
          <mxGeometry x="196.75" y="-45" width="120" height="25" as="geometry" />
        </mxCell>
        <mxCell id="pE5c4ry1s6cFORCVuCyy-40" value="GitLab Runner&amp;nbsp;&lt;br&gt;(Azure)" style="rounded=0;whiteSpace=wrap;html=1;labelBackgroundColor=none;fontSize=13;" vertex="1" parent="1">
          <mxGeometry x="414" y="247.5" width="120" height="60" as="geometry" />
        </mxCell>
        <mxCell id="EPyueugh2iobcvaEf9Se-9" value="" style="shape=image;verticalLabelPosition=bottom;labelBackgroundColor=default;verticalAlign=top;aspect=fixed;imageAspect=0;image=data:image/png,iVBORw0KGgoAAAANSUhEUgAAAOEAAADhCAMAAAAJbSJIAAAA9lBMVEX////iQyn8bSb8oybhNBH0wLn8bCb8pSb8aibhQCniQCXhPB/kRin8ayLiPyP8aRzpTyj8ZhP8YgD8ngDhORrzXyf8oCb87ev76OXhNBDgLwD4ZifwWif9tZ3/8Or+08L8h1P99fTxrqb30879qYf7eib7hybulovnbVzvn5TzurPmYk/wp57kUz32y8bkTzbsjIDpeWr419P+x7H9v6f+2Mj8dTL7lyb/8+X8rULpdmb64d7lXkrqgnXriHv5nHz9lmr8fUD/49f9jl79rYz8iFX8dR38sln9yIn9z5n+4L7/9+3+3bb9wnj9v3L+3bf8qDP+69TguyEEAAAIqUlEQVR4nO2di1qbTBCGA4lRopGcrCamRqqtrbW19tza/vZsD/bg/d/MDyRLgN2FZWcGEp99L6DDB+/ODht8WqsZDAaDwWAwGAwGg8FgMBgMBoPBYDAYDAYDGG/leGW7hDo7fh2vhDocR6NhozE6o864fTZqNIajI+IyAu4PrYDBKe3t3T4dhHUa90nLCHgwDehHfEta5+1gVmf4gLQOhzeyGMOnhHXOG1GdEWEZAcfzygPKm3syiOo0jgnr8DzcjCpvPrwBdTjOh9acxg5dnUa8zjlZHZ6jQazy4ISszkmiTok7hveoFatMqE9MUstqPSpv338cl9TvclSa7owSdYaPierwvF9PVCbTNCGpZa2fEdXh2G4kClutU6JCicUQ3MoyxuCAO6mEVJpuj1J1GndI6vCcpm6tNaCpfGeQqtN6RFKH42n61lJ100QnncpCOSHOebKeLmxtUmi6w9dZ/4+gDodnpSUlWiDccvc1tcrYElf4wtYmxSvUW07Sksbv+4LCFH18O91nwltZwovwjuARktzbY3EhujGf8UB0ayk0FbpC+zY6hdsMp4ywW4DH7UkhZPNTxGNxYXxNxZL6t5J6/D7jN6mpptgtQCwp/fgtccdC76aecLmHD5F2SxTswkzTFdRCol13Voh2/H4ncQfdHtlq8NfDO9RCKZ5K3fEHKkxNtwWjIWNAOX4fyRPinjGkzkmSCZ8gFkohGroj1t8jVnovlZR2/F7JuLNWaxOvcOattIa4TS2OaNqPFcbTNEtSyvGbOzdJgqhplqQ+I6oTqZOMPhM+RLRK2beSbvyWDN3zhFiaZktKN34fSMeMGWia5kjq38sDpEoF67YspEqZnTS8lyTjd9aYMaOBo2muLMgDFEP2whYDadoQHFdy95Ji/ObPZ/lbi/L7l5f+uUIAxRn0eU4HDxlhdICDnE46rYT/g3DW0B2B8jNteZWS5K9CC6mb5ne0gAZCpQR5m/AMBE0PVJYDwfgtOxhKgdBNlSTFH78FvwMJabXApTaVJPV3fdzT7xOlZWghfAOm1EkDkL8eeKd4Y+E9TlFSXxfUEynlGwv/IVphu5+BOn4rzFEM4LdZ56rLAfcHYU/5EQavUCsQ/lO/l9YQ72BIYeiORWxAKBAQ89cg+Ul3peCdfu8UkLRUhljjt3IDLxus8Vvlfa0aWkh/KKA4dFcB0ume/IeuysE5kUp/a7lQDDFOpOQ/+y4AKON33kl3pWCcfvPfWi4UCN9jXow7G45TdRAhjrPRGV9AA3pu227ujjvWooV0rM54t2m329AtcdK1Q5pbnQV6ko7T2WpOL6w3ASb84NoRW4vxJP2ntzW/KPcDLKD3sm3H2B1XntHZGO/GL6n9Eqbpp56dpDneqDKjn6+ZuqLeJ1DC212bY6uyjM7GFn853dughPFlWHVGYT7wQvzYFv2jtl3+enSssfhS2h8hAb30MoxY65Qb0emsyS6lB2k1XKOJsVuiqs7GrvxCQK1mkpEwULWsgBJBZwkhe/4zQSst/TFmPkCf7jNAwufZCe1mCavR6aR3wHTC54CEou0wyRZ5QuEWkUgI2RDzExKbmmdoGQlJTc01FJwwbx1OGVNFzO6hUULIOlRLSGSqiqHghDm7RQSFqUqGhgkhu8WLzB0/DrqpaoYG9F4AEu4pJ0Q2VdXQMOEeIKHXVTTFxjVV2VCfdhsQsFbbl7w9CUEzVd3QIOE+KOGF8A1Yxi5SQnVDfVzYialqM52BYWoRQwNArbRW2ymWEMHUQoaGCYFff8mOMaRAR/FChtrQQwyfw6IPEXS+kXFWIaN7CEyYdY4hQ9vUwoYGCSH7fUhhTW19U3NfBXnaL6EBlV6gONY0Bhxno7ChNvg8OEB+oJhJ4cWoY6gNPEqcUbzXhBQ1VcNQG7zdT9HpNQFFRvEig3YC0NQdcaH3EAuY6nQ0K3QxHqH/CuVqtNMQVVP1DA1eK1AeoWY7DVExVdtQlEY646XuQ1QwVdtQlL2QodtsAvJM1TXUf5EB/vqb4DYgYpapAEP9PormaMDnQm/CSeQvjQBD/UX4GTNgzbP1l6Jvqjiio2+ov9cDv8Hg2OtCIopMBRlqt7tIG8WcT9q7YgBvatHDilRAF7HLMCY9SMT0SyPIUP8JQr/1EgJ7iglTYYb6AQmeYBjRBnTUuKmgHho0GaKAfrvZ157fQmamar4KMrpf0ZtMjEPYYgxMhRragx495TBxoaaCeqjtuiQ9Jg7U1Ls2JGF3n9JQBsDUNfvV6itb58QppN37UkK+WvBltKapa3dv1ev1W3c1I7o0u6AIPVOba/dW6wGr99Z0TC3HUIaGqYGh9Sk6ppZmKKOwqb6hLKAfsbCpJfTQNMVMjQyNMhYztVxDGYfqL1QxQ+sappLv8jKUd/+EocVNde3SDWXsfVQxlTM0Qs3UagxlKPRUgaFFTG13S+6haSZ5b1RCQ9VNrdBQRrapvqHSeCqmVmsoI8PUDEPnpjalEUvf5WVITc00NN/UBTCUId798w2dmyoK2CN9ly+KwNRmvqFZpi6MoQxu91cyVG6q2wZ/RYJN0lT5Lq9mKu1pky5f5qYWMHRu6nzbWDhDGZOeq2FoFPEWG3Bc0HfNpHihqeo9NE1oarP7tZL/G1cR31SFXV76GF/ZzTbuD5/4TNxvGobOI35zF9ZQxt6bvnbAer1/uYg9NM13/Yj9H1VfvBo/tRP+rPrSVXmtZWr/8lfVF14ADVP736u+6GJcFQ24ujSGMoqZ2r98XfUFa/BbPeKyGcq4Un4/XDpDGddKpi6noQwFU5fVUMZVbsSlNZSR3VP7b5bZUMYfecT+76ovDgepqf2/VV8aFtf/RBlvhqEMgak3xVDGj3TE/lXVl4TN9Wo8Y//fTTJ0xq+Yqf0/VV8NDZGpN89QxvVlP2Cp59A8Xv+9+nuT8xkMBoPBYDAYDAaDwWAwGAwGg8FgMBgMhoXmf3Do5t2Z0MEtAAAAAElFTkSuQmCC;" parent="1" vertex="1">
          <mxGeometry x="508" y="164" width="25" height="25" as="geometry" />
        </mxCell>
      </root>
    </mxGraphModel>
  </diagram>
</mxfile>
